<?xml version="1.0" encoding="UTF-8"?>
<svg width="28px" height="28px" viewBox="0 0 28 28" version="1.1" xmlns="http://www.w3.org/2000/svg" xmlns:xlink="http://www.w3.org/1999/xlink">
    <!-- Generator: Sketch 59 (86127) - https://sketch.com -->
    <title>icon-account-原来的Dashboard</title>
    <desc>Created with Sketch.</desc>
    <g id="icon-account-原来的Dashboard" stroke="none" stroke-width="1" fill="none" fill-rule="evenodd">
        <g>
            <g id="编组-29" transform="translate(4.000000, 4.000000)" fill-rule="nonzero" stroke="#A0A1B2">
                <path d="M7.779042,9.80892794 C8.13834139,10.3416703 8.74743664,10.6920246 9.43836153,10.6920246 C10.099986,10.6920246 10.686574,10.3707556 11.0506351,9.875708" id="路径" stroke-linecap="round"></path>
                <path d="M11.8308527,19.9938427 L11.3356204,19.9938427 L10.5549006,20 L0.0022353473,20 L0.0022353473,19.4811038 C0.0022353473,19.4811038 -0.226857326,16.5826117 3.9534224,15.8406796 C3.9534224,15.8406796 7.13558079,15.4020276 7.35838329,14.5084001 C7.35838329,14.5084001 7.47980544,14.4089752 7.39020292,13.3711607 C7.19919837,11.1614663 5.78317053,10.1216805 5.21037377,9.27684626 C4.63757702,8.4319234 4.58988011,7.45712144 4.58988011,7.45712144 C4.58988011,7.2134874 4.68978551,7.1242066 4.85593301,6.9677271 C5.06131821,6.77412663 4.99967445,6.56849949 4.96045844,6.35066851 C4.81122935,5.52364168 4.79806336,4.19501664 4.93989606,3.36280705 C4.97171569,2.37172591 5.86270876,1.57566275 5.86270876,1.57566275 C6.02989739,1.43083338 6.19745476,1.27149672 6.31479914,1.08037689 C6.34757314,1.02715392 6.37772262,0.97007711 6.39559541,0.909567273 C6.46272681,0.681415066 6.23545612,0.513905586 6.28104907,0.271246079 C6.32219552,0.05244056 6.68945524,0.041676365 6.91156364,0.0297604454 C7.41176305,0.00287210649 7.91447853,-0.0172387764 8.41389709,0.0218312648 C12.1515868,0.314413602 13.3804709,1.71942898 13.3804709,1.71942898 C13.671446,2.07522328 13.8631446,2.51033153 13.9784718,2.95629257 C14.0130027,3.08962684 14.0426316,3.22572968 14.0586607,3.3628292 C14.1752026,4.04637773 14.1747688,4.75920664 14.1385243,5.44995345 C14.1212589,5.77930238 14.0837781,6.1034907 14.0364282,6.42938445 C14.0115928,6.59992828 14.024325,6.75864479 14.1359866,6.89492481 C14.2292547,7.00894555 14.3359709,7.08861388 14.3817374,7.23842667 C14.4031673,7.30848253 14.4087634,7.38414197 14.4087634,7.45714359 C14.4087634,7.45714359 14.3609798,8.43194555 13.788183,9.27686841 C13.2153863,10.1217027 11.7993367,11.1614885 11.6084406,13.3711828 C11.5187513,14.4089974 11.6402603,14.5084222 11.6402603,14.5084222 C11.862976,15.4020276 15.0452211,15.8407018 15.0452211,15.8407018 C19.2722217,16.6412168 18.9963214,19.4811259 18.9963214,19.4811259 L18.9963214,20 L16.2134593,20 L16.6519282,19.9938649 L16.2775107,19.9938649 L15.5013242,19.9938649 L11.8308527,19.9938649 L11.8308527,19.9938427 Z" id="Shape"></path>
                <path d="M4.84650757,4.45830358 C6.19343624,4.13602954 7.27149545,3.65447849 8.08068522,3.01365042 C9.85382208,4.07853035 11.8835269,4.60034515 14.1697997,4.57909484" id="路径-50"></path>
                <path d="M7.08080308,15.0042531 L8.35354943,15.8720577 C9.04300703,16.342155 9.95187503,16.3347782 10.6336113,15.8535518 L11.8367823,15.0042531 L11.8367823,15.0042531" id="路径-51"></path>
                <line x1="8.5" y1="16.5" x2="8" y2="20" id="路径-52" stroke-linecap="round"></line>
                <line x1="10.3332945" y1="16.1962639" x2="10.8332945" y2="19.6962639" id="路径-52" stroke-linecap="round"></line>
            </g>
            <rect id="矩形" x="0" y="0" width="28" height="28"></rect>
        </g>
    </g>
</svg>