<?xml version="1.0" encoding="UTF-8"?>
<svg width="28px" height="28px" viewBox="0 0 28 28" version="1.1" xmlns="http://www.w3.org/2000/svg" xmlns:xlink="http://www.w3.org/1999/xlink">
    <!-- Generator: Sketch 59 (86127) - https://sketch.com -->
    <title>icon-充值</title>
    <desc>Created with Sketch.</desc>
    <g id="icon-充值" stroke="none" stroke-width="1" fill="none" fill-rule="evenodd">
        <g>
            <g id="编组-28" transform="translate(2.000000, 2.000000)" stroke="#A0A1B2">
                <polygon id="矩形" points="1 20 23 20 24 25 1.36407552e-12 25"></polygon>
                <line x1="6.5" y1="22.5" x2="17.5" y2="22.5" id="直线-4" stroke-linecap="round"></line>
                <polygon id="路径-14" points="4.19854771 0.343906918 6.83539248 1.55231069 3.62062259 8.55961187 0.681717809 7.28752173"></polygon>
                <path d="M6.5,2.71096143 L13.5700652,6.13669835 C14.6439664,6.55747307 14.9968084,7.46742585 14.6285913,8.86655671" id="路径-15"></path>
                <path d="M7.80038234,10.2853799 C7.29401657,11.0671371 7,11.9992329 7,13 C7,15.7614237 9.23857625,18 12,18 C14.7614237,18 17,15.7614237 17,13 C17,10.6248048 15.343832,8.63642845 13.1233069,8.12668153" id="路径" stroke-linecap="round"></path>
                <path d="M4.06498076,7.49668554 C5.67392078,8.0090087 6.53789107,8.94487337 6.65689163,10.3042796 C6.77589219,11.6636858 6.90985846,12.8010457 7.05879043,13.7163593" id="路径-17"></path>
                <path d="M8.48365816,6.84672032 C8.42374913,8.00527771 8.82910192,8.97881764 9.69971654,9.76734011 C11.0056385,10.9501238 10.1207945,12.4113836 11.4627276,12.7056918 C12.8046606,13 13.0475439,11.4457047 12.638725,10.6065224 C12.2299061,9.76734011 11.5335938,9.20461202 11.7667969,7.49668554" id="路径-37" stroke-linecap="round" stroke-linejoin="round"></path>
                <polyline id="路径-38" points="18.6503151 4.57528108 20.5793028 6.50426872 22.5082904 4.57528108"></polyline>
                <line x1="20.5" y1="5.5" x2="20.5" y2="0.5" id="直线-6" stroke-linecap="square"></line>
                <polyline id="路径-38" points="18.6503151 14.5752811 20.5793028 16.5042687 22.5082904 14.5752811"></polyline>
                <line x1="20.5" y1="15.5" x2="20.5" y2="10.5" id="直线-6" stroke-linecap="square"></line>
            </g>
            <rect id="矩形" x="0" y="0" width="28" height="28"></rect>
        </g>
    </g>
</svg>