<?xml version="1.0" encoding="UTF-8"?>
<svg width="28px" height="28px" viewBox="0 0 28 28" version="1.1" xmlns="http://www.w3.org/2000/svg" xmlns:xlink="http://www.w3.org/1999/xlink">
    <!-- Generator: Sketch 59 (86127) - https://sketch.com -->
    <title>icon-提现</title>
    <desc>Created with Sketch.</desc>
    <g id="icon-提现" stroke="none" stroke-width="1" fill="none" fill-rule="evenodd">
        <g>
            <g id="编组-28" transform="translate(14.000000, 14.500000) scale(1, -1) rotate(-180.000000) translate(-14.000000, -14.500000) translate(2.000000, 5.000000)" stroke="#A0A1B2">
                <polyline id="路径" points="16.8012218 14 23 14 24 19 0 19 1 14 7.05661745 14"></polyline>
                <line x1="6.5" y1="16.5" x2="17.5" y2="16.5" id="直线-4" stroke-linecap="round"></line>
                <g id="编组-34" transform="translate(0.681718, 0.000000)">
                    <polygon id="路径-14" points="3.5168299 1.17293751e-12 6.15367467 1.20840378 2.93890478 8.21570496 1.8189894e-12 6.94361481"></polygon>
                    <path d="M5.81828219,2.36705451 L12.8883474,5.79279143 C13.9622486,6.21356615 14.3150906,7.12351894 13.9468735,8.52264979" id="路径-15"></path>
                    <path d="M7.11866453,9.94147295 C6.61229876,10.7232302 6.31828219,11.655326 6.31828219,12.6560931 C6.31828219,14.2082398 7.02552955,15.5952001 8.13534158,16.5122912 M14.5247098,16.4927624 C15.6210035,15.5755732 16.3182822,14.1972622 16.3182822,12.6560931 C16.3182822,10.2808979 14.6621142,8.29252153 12.4415891,7.78277461" id="形状" stroke-linecap="round"></path>
                    <path d="M3.38326295,7.15277863 C4.99220297,7.66510178 5.85617326,8.60096645 5.97517382,9.96037265 C6.09417439,11.3197788 6.22814065,12.4571387 6.37707262,13.3724524" id="路径-17"></path>
                    <path d="M7.80194035,6.5028134 C7.74203132,7.66137079 8.14738411,8.63491072 9.01799873,9.42343319 C10.3239207,10.6062169 9.43907673,12.0674767 10.7810097,12.3617849 C12.1229428,12.6560931 12.3658261,11.1017978 11.9570072,10.2626155 C11.5481883,9.42343319 10.8518759,8.8607051 11.0850791,7.15277863" id="路径-37" stroke-linecap="round" stroke-linejoin="round"></path>
                </g>
                <g id="编组-33" transform="translate(20.650315, 6.500000) scale(1, -1) translate(-20.650315, -6.500000) translate(18.650315, 2.000000)">
                    <polyline id="路径-38" points="0 7.07101235 1.92898765 9 3.85797529 7.07101235"></polyline>
                    <line x1="1.84968485" y1="8.5" x2="1.84968485" y2="0.5" id="直线-6" stroke-linecap="square"></line>
                </g>
            </g>
            <rect id="矩形" x="0" y="0" width="28" height="28"></rect>
        </g>
    </g>
</svg>