<?xml version="1.0" encoding="UTF-8"?>
<svg width="28px" height="28px" viewBox="0 0 28 28" version="1.1" xmlns="http://www.w3.org/2000/svg" xmlns:xlink="http://www.w3.org/1999/xlink">
    <!-- Generator: Sketch 59 (86127) - https://sketch.com -->
    <title>icon-我的资产</title>
    <desc>Created with Sketch.</desc>
    <g id="icon-我的资产" stroke="none" stroke-width="1" fill="none" fill-rule="evenodd">
        <path d="M14,3 C20.0751322,3 25,7.92486775 25,14 C25,20.0751322 20.0751322,25 14,25 C7.92486775,25 3,20.0751322 3,14 C3,7.92486775 7.92486775,3 14,3 Z M14,4 C8.4771525,4 4,8.4771525 4,14 C4,19.5228475 8.4771525,24 14,24 C19.5228475,24 24,19.5228475 24,14 C24,8.4771525 19.5228475,4 14,4 Z M17.2402229,8.04568176 L17.9473297,8.75278854 L14.699,12 L20,12 L20,13 L14.55,13 L14.55,15.5 L20,15.5 L20,16.5 L14.55,16.5 L14.5509043,21.457269 L13.5509043,21.457269 L13.55,16.5 L8,16.5 L8,15.5 L13.55,15.5 L13.55,13 L8,13 L8,12 L13.417,12 L10.1691551,8.75278854 L10.8762619,8.04568176 L14.0582424,11.2276623 L17.2402229,8.04568176 Z" id="形状结合" fill="#A0A1B2" fill-rule="nonzero"></path>
    </g>
</svg>