<?xml version="1.0" encoding="UTF-8"?>
<svg width="28px" height="28px" viewBox="0 0 28 28" version="1.1" xmlns="http://www.w3.org/2000/svg" xmlns:xlink="http://www.w3.org/1999/xlink">
    <!-- Generator: Sketch 59 (86127) - https://sketch.com -->
    <title>icon-退出</title>
    <desc>Created with Sketch.</desc>
    <g id="icon-退出" stroke="none" stroke-width="1" fill="none" fill-rule="evenodd">
        <g>
            <g id="编组-30" transform="translate(2.000000, 5.000000)" stroke="#A0A1B2">
                <path d="M9,3.28730456 L9,1 C9,0.44771525 9.44771525,1.01453063e-16 10,0 L20,0 C20.5522847,-1.01453063e-16 21,0.44771525 21,1 L21,16 C21,16.5522847 20.5522847,17 20,17 L10,17 C9.44771525,17 9,16.5522847 9,16 L9,13.7168802 L9,13.7168802" id="路径"></path>
                <path d="M5,4 L5,7 L13,7 L13,10 L5,10 L5,13 L-1.6854368e-16,8.5 L5,4 Z" id="形状结合"></path>
                <polyline id="路径" points="11 7.05557576 11 3 19 3 19 14 11 14 11 10.0701048"></polyline>
            </g>
            <rect id="矩形" x="0" y="0" width="28" height="28"></rect>
        </g>
    </g>
</svg>