<?xml version="1.0" encoding="UTF-8"?>
<svg width="28px" height="28px" viewBox="0 0 28 28" version="1.1" xmlns="http://www.w3.org/2000/svg" xmlns:xlink="http://www.w3.org/1999/xlink">
    <!-- Generator: Sketch 59 (86127) - https://sketch.com -->
    <title>icon-账户记录</title>
    <desc>Created with Sketch.</desc>
    <g id="icon-账户记录" stroke="none" stroke-width="1" fill="none" fill-rule="evenodd">
        <g>
            <g id="编组-35" transform="translate(4.000000, 4.000000)" stroke="#A0A1B2">
                <g id="编组-36" stroke-linecap="round">
                    <circle id="椭圆形" cx="4" cy="4" r="4"></circle>
                    <path d="M5.2051634,2.24745124 L3.32862318,2.24745124 C2.87489219,2.24745124 2.50707055,2.61527289 2.50707055,3.06900388 C2.50707055,3.52273487 2.87489219,3.89055651 3.32862318,3.89055651 L4.51255625,3.89055651 C5.03452827,3.89055651 5.4576702,4.31369844 5.4576702,4.83567046 C5.4576702,5.35764248 5.03452827,5.78078441 4.51255625,5.78078441 L2.76341764,5.78078441 L2.76341764,5.78078441" id="路径-49"></path>
                    <line x1="4.02814618" y1="2.55938296" x2="4.02814618" y2="1.55938296" id="直线-9"></line>
                    <line x1="3.99771984" y1="6.15448104" x2="3.99771984" y2="5.15448104" id="直线-9"></line>
                </g>
                <path d="M3.08723408,9.66042406 L3.08723408,17.0383943 C3.08723408,18.3139251 4.12125609,19.3479471 5.39678689,19.3479471 C6.67231769,19.3479471 7.70633971,18.3139251 7.70633971,17.0383943 L7.70633971,16.4507936 L7.70633971,16.4507936 L19.0872341,16.4507936 C19.0872341,18.0508473 17.7901343,19.3479471 16.1900806,19.3479471 L9.12067157,19.3479471 L9.12067157,19.3479471" id="路径-46"></path>
                <path d="M9.5,0.967398152 L15.5285422,0.967398152 C16.6331117,0.967398152 17.5285422,1.86282865 17.5285422,2.96739815 L17.5285422,14.5041856 L17.5285422,14.5041856" id="路径-47"></path>
                <line x1="9.5" y1="3.5" x2="14.5" y2="3.5" id="直线-8"></line>
                <line x1="9.5" y1="6" x2="14.5" y2="6" id="直线-8"></line>
                <polygon id="路径-48" points="8.70890475 10.8171553 10.002458 12.2281934 12.5830656 9.66042406 13.9806137 10.9765339 10.002458 14.9673982 7.2935981 12.2281934"></polygon>
            </g>
            <rect id="矩形" x="0" y="0" width="28" height="28"></rect>
            <line x1="13.4797701" y1="12" x2="15.5" y2="12" id="直线-8" stroke="#A0A1B2"></line>
        </g>
    </g>
</svg>