<?xml version="1.0" encoding="UTF-8"?>
<svg width="28px" height="28px" viewBox="0 0 28 28" version="1.1" xmlns="http://www.w3.org/2000/svg" xmlns:xlink="http://www.w3.org/1999/xlink">
    <!-- Generator: Sketch 59 (86127) - https://sketch.com -->
    <title>icon-公告</title>
    <desc>Created with Sketch.</desc>
    <g id="icon-公告" stroke="none" stroke-width="1" fill="none" fill-rule="evenodd">
        <path d="M20.0021905,4.18862707 L20.5248884,3.33610912 C24.207349,5.59390867 26.5,9.59965447 26.5,14 C26.5,18.4619222 24.1418306,22.5110958 20.3896841,24.7456633 L20.1056744,24.9098316 L19.6165386,24.037624 C23.2209013,22.0162897 25.5,18.2080654 25.5,14 C25.5,10.0636043 23.5066355,6.47143097 20.281619,4.36547153 L20.0021905,4.18862707 L20.5248884,3.33610912 L20.0021905,4.18862707 Z M17.257636,8.37391308 L17.7595939,7.50902103 C20.0560182,8.84179814 21.5,11.2954499 21.5,14 C21.5,16.6534049 20.1099237,19.0635167 17.89388,20.4112141 L17.6533118,20.5515076 L17.1655428,19.6785349 C19.2079164,18.5373689 20.5,16.3822034 20.5,14 C20.5,11.7423999 19.339789,9.6873242 17.475808,8.50627139 L17.257636,8.37391308 L17.7595939,7.50902103 L17.257636,8.37391308 Z M14.362575,8.8549569 C14.4531177,9.05165614 14.5,9.26562682 14.5,9.48216452 L14.5,18.5623075 C14.5,19.3907346 13.8284271,20.0623075 13,20.0623075 C12.8487976,20.0623075 12.6984642,20.0394461 12.5540971,19.9944983 L8.5540971,18.7491255 C8.38088243,18.6951963 8.22064245,18.6110398 8.07981183,18.5016135 L5,18.5 C4.17157288,18.5 3.5,17.8284271 3.5,17 L3.5,11.6828603 C3.5,10.8544332 4.17157288,10.1828603 4.99974119,10.1828604 L8.02752879,10.1812931 L8.13529984,10.0976814 C8.20971891,10.0451935 8.28914862,9.99933374 8.37279239,9.96083163 L12.3727924,8.11958952 C13.1253218,7.77319233 14.0161778,8.10242752 14.362575,8.8549569 Z M12.7909308,9.02797285 L8.7909308,10.869215 C8.72322347,10.9003814 8.66406728,10.9457688 8.61678244,11.0022265 L8.46699973,11.1810658 L5,11.1828603 C4.72385763,11.1828603 4.5,11.4067179 4.5,11.6828603 L4.5,17 C4.5,17.2761424 4.72385763,17.5 5.00026194,17.5000001 L8.4876911,17.501827 L8.63569812,17.6594278 C8.69445023,17.7219882 8.76816844,17.7684287 8.8513657,17.7943316 L12.8513657,19.0397044 C12.8994881,19.054687 12.9495992,19.0623075 13,19.0623075 C13.2761424,19.0623075 13.5,18.8384499 13.5,18.5623075 L13.5,9.48216452 C13.5,9.43404503 13.4930545,9.38630584 13.4794816,9.34039924 L13.4541917,9.27309531 L13.4092936,9.19482217 C13.2733058,9.00064477 13.0139025,8.92533665 12.7909308,9.02797285 Z" id="形状" fill="#A0A1B2" fill-rule="nonzero"></path>
    </g>
</svg>