<?xml version="1.0" encoding="UTF-8"?>
<svg width="24px" height="24px" viewBox="0 0 24 24" version="1.1" xmlns="http://www.w3.org/2000/svg" xmlns:xlink="http://www.w3.org/1999/xlink">
    <!-- Generator: Sketch 59 (86127) - https://sketch.com -->
    <title>icon-setting</title>
    <desc>Created with Sketch.</desc>
    <defs>
        <path d="M16.25,3 L16.4098743,5.32627102 C17.1929081,5.54335477 17.9330374,5.86362769 18.6147003,6.27152796 L20.3197669,4.76341767 L23.2365823,7.68023314 L21.7296687,9.38730005 C22.1375188,10.0692801 22.4576741,10.809746 22.6745591,11.593122 L25,11.75 L25,16.25 L22.673729,16.4098743 C22.4570679,17.1913835 22.1376191,17.9301551 21.7308536,18.610718 L23.2365823,20.3197669 L20.3197669,23.2365823 L18.6127,21.7296687 C17.9312996,22.1371721 17.1915128,22.4571298 16.4088756,22.6740058 L16.25,25 L11.75,25 L11.589127,22.673452 C10.8072285,22.4565853 10.0681207,22.1368254 9.38730005,21.7296687 L7.68023314,23.2365823 L4.76341767,20.3197669 L6.26914637,18.610718 C5.86220764,17.9298652 5.54265997,17.1907541 5.32599421,16.4088756 L3,16.25 L3,11.75 L5.32682499,11.5881284 C5.54368698,10.8065991 5.86334794,10.0678308 6.2703313,9.38730005 L4.76341767,7.68023314 L7.68023314,4.76341767 L9.38529966,6.27152796 C10.0681218,5.86293403 10.8096093,5.54226574 11.5941209,5.32516442 L11.75,3 L16.25,3 Z" id="path-1"></path>
    </defs>
    <g id="PC版" stroke="none" stroke-width="1" fill="none" fill-rule="evenodd">
        <g id="1.我的资产" transform="translate(-376.000000, -389.000000)">
            <g id="编组" transform="translate(359.000000, 378.000000)">
                <g id="icon-setting" transform="translate(15.000000, 9.000000)">
                    <g id="icon-游戏记录">
                        <g id="编组-10">
                            <rect id="矩形" x="0" y="0" width="28" height="28"></rect>
                            <mask id="mask-2" fill="white">
                                <use xlink:href="#path-1"></use>
                            </mask>
                            <use id="形状结合" stroke="#A0A1B2" xlink:href="#path-1"></use>
                            <g mask="url(#mask-2)" id="编组-4">
                                <g transform="translate(14.714449, 14.098231) rotate(-60.000000) translate(-14.714449, -14.098231) translate(11.714449, -0.401769)">
                                    <g></g>
                                </g>
                            </g>
                            <circle id="椭圆形" stroke="#A0A1B2" mask="url(#mask-2)" cx="14" cy="14" r="4"></circle>
                        </g>
                    </g>
                </g>
            </g>
        </g>
    </g>
</svg>