<?xml version="1.0" encoding="UTF-8"?>
<svg width="28px" height="28px" viewBox="0 0 28 28" version="1.1" xmlns="http://www.w3.org/2000/svg" xmlns:xlink="http://www.w3.org/1999/xlink">
    <!-- Generator: Sketch 59 (86127) - https://sketch.com -->
    <title>icon-场外交易记录</title>
    <desc>Created with Sketch.</desc>
    <g id="icon-场外交易记录" stroke="none" stroke-width="1" fill="none" fill-rule="evenodd">
        <path d="M7.58723408,13.6604241 L7.58723408,21.0383943 C7.58723408,22.0377827 8.39739847,22.8479471 9.39678689,22.8479471 C10.3462059,22.8479471 11.1248502,22.1167737 11.2003411,21.1868057 L11.2063397,21.0383943 L11.2063397,19.9507936 L23.5872341,19.9507936 L23.5872341,20.4507936 C23.5872341,22.2644498 22.1659839,23.7461552 20.3764729,23.8429204 L20.1900806,23.8479471 L13.1206716,23.8479471 L13.1206716,22.8479471 L20.1900806,22.8479471 C21.2849026,22.8479471 22.2083011,22.1139963 22.4950885,21.1112825 L22.5350125,20.9507936 L12.2063397,20.9507936 L12.2063397,21.0383943 C12.2063397,22.5900675 10.9484601,23.8479471 9.39678689,23.8479471 C7.9025831,23.8479471 6.68081336,22.6815182 6.59236156,21.2095444 L6.58723408,21.0383943 L6.58723408,13.6604241 L7.58723408,13.6604241 Z M13.5,4.46739815 L19.5285422,4.46739815 C20.8540256,4.46739815 21.9385809,5.49893409 22.0232245,6.80302246 L22.0285422,6.96739815 L22.0285422,18.5041856 L21.0285422,18.5041856 L21.0285422,6.96739815 C21.0285422,6.18770203 20.4336541,5.54694947 19.6730022,5.47426473 L19.5285422,5.46739815 L13.5,5.46739815 L13.5,4.46739815 L19.5285422,4.46739815 L13.5,4.46739815 Z M19.8457552,15.6358211 L19.8457552,16.6358211 L13.1069674,16.6358211 L13.9462343,17.425355 L13.2610373,18.1537128 L10.5845429,15.6358211 L19.8457552,15.6358211 Z M16.5847179,11.6358211 L19.2612123,14.1537128 L10,14.1537128 L10,13.1537128 L16.7387877,13.1537128 L15.8995209,12.3641789 L16.5847179,11.6358211 Z M8,3.5 C10.4852814,3.5 12.5,5.51471863 12.5,8 C12.5,10.4852814 10.4852814,12.5 8,12.5 C5.51471863,12.5 3.5,10.4852814 3.5,8 C3.5,5.51471863 5.51471863,3.5 8,3.5 Z M8,4.5 C6.06700338,4.5 4.5,6.06700338 4.5,8 C4.5,9.93299662 6.06700338,11.5 8,11.5 C9.93299662,11.5 11.5,9.93299662 11.5,8 C11.5,6.06700338 9.93299662,4.5 8,4.5 Z M7.93827055,5.06743863 L8.02814618,5.05938296 C8.27360607,5.05938296 8.47775455,5.23625812 8.52009051,5.46950733 L8.52814618,5.55938296 L8.528,5.747 L9.2051634,5.74745124 C9.45062329,5.74745124 9.65477177,5.9243264 9.69710773,6.15757561 L9.7051634,6.24745124 C9.7051634,6.49291113 9.52828824,6.69705961 9.29503904,6.73939557 L9.2051634,6.74745124 L8.49119905,6.74836406 C8.41665892,6.9308185 8.23741647,7.05938296 8.02814618,7.05938296 C7.81887589,7.05938296 7.63963344,6.9308185 7.5650933,6.74836406 L7.32862318,6.74745124 C7.15103456,6.74745124 7.00707055,6.89141526 7.00707055,7.06900388 C7.00707055,7.22439391 7.117293,7.35404012 7.26381911,7.3840237 L7.32862318,7.39055651 L8.51255625,7.39055651 C9.31067064,7.39055651 9.9576702,8.03755606 9.9576702,8.83567046 C9.9576702,9.58683695 9.38454948,10.2041439 8.65173036,10.2741691 L8.48148555,10.2813393 C8.4253366,10.4960492 8.23003009,10.654481 7.99771984,10.654481 C7.76540959,10.654481 7.57010308,10.4960492 7.51395414,10.2813393 L6.76341764,10.2807844 C6.48727526,10.2807844 6.26341764,10.0569268 6.26341764,9.78078441 C6.26341764,9.53532452 6.4402928,9.33117604 6.67354201,9.28884008 L6.76341764,9.28078441 L7.497,9.28 L7.49771984,9.15448104 C7.49771984,8.90902115 7.674595,8.70487267 7.90784421,8.66253671 L7.99771984,8.65448104 C8.24317973,8.65448104 8.44732821,8.8313562 8.48966417,9.06460541 L8.49771984,9.15448104 L8.497,9.28 L8.51255625,9.28078441 C8.73107149,9.28078441 8.91281016,9.12332521 8.95049881,8.91568026 L8.9576702,8.83567046 C8.9576702,8.61715522 8.80021099,8.43541654 8.59256604,8.39772789 L8.51255625,8.39055651 L7.32862318,8.39055651 C6.59874981,8.39055651 6.00707055,7.79887724 6.00707055,7.06900388 C6.00707055,6.3847476 6.52710115,5.82195097 7.1935021,5.75427427 L7.32862318,5.74745124 L7.528,5.747 L7.52814618,5.55938296 C7.52814618,5.31392308 7.70502134,5.10977459 7.93827055,5.06743863 L8.02814618,5.05938296 L7.93827055,5.06743863 Z M18.5,9.5 L18.5,10.5 L13.5,10.5 L13.5,9.5 L18.5,9.5 Z M18.5,7 L18.5,8 L13.5,8 L13.5,7 L18.5,7 Z" id="形状" fill="#A0A1B2" fill-rule="nonzero"></path>
    </g>
</svg>