<?xml version="1.0" encoding="UTF-8"?>
<svg width="28px" height="28px" viewBox="0 0 28 28" version="1.1" xmlns="http://www.w3.org/2000/svg" xmlns:xlink="http://www.w3.org/1999/xlink">
    <!-- Generator: Sketch 59 (86127) - https://sketch.com -->
    <title>icon-帮助中心</title>
    <desc>Created with Sketch.</desc>
    <g id="icon-帮助中心" stroke="none" stroke-width="1" fill="none" fill-rule="evenodd">
        <path d="M14,2.5 C20.3512746,2.5 25.5,7.64872538 25.5,14 C25.5,20.3512746 20.3512746,25.5 14,25.5 C7.64872538,25.5 2.5,20.3512746 2.5,14 C2.5,7.64872538 7.64872538,2.5 14,2.5 Z M14,3.5 C8.20101013,3.5 3.5,8.20101013 3.5,14 C3.5,19.7989899 8.20101013,24.5 14,24.5 C19.7989899,24.5 24.5,19.7989899 24.5,14 C24.5,8.20101013 19.7989899,3.5 14,3.5 Z M13.682,17.334 C13.92,17.334 14.116,17.404 14.284,17.572 C14.438,17.726 14.522,17.922 14.522,18.16 C14.522,18.412 14.438,18.608 14.284,18.762 C14.116,18.916 13.906,19 13.682,19 C13.43,19 13.234,18.916 13.08,18.762 C12.912,18.594 12.828,18.398 12.828,18.16 C12.828,17.922 12.912,17.726 13.08,17.572 C13.234,17.404 13.43,17.334 13.682,17.334 Z M13.878,8.808 C14.774,8.808 15.502,9.046 16.034,9.55 C16.552,10.026 16.818,10.684 16.818,11.524 C16.818,12.154 16.636,12.7 16.3,13.162 L16.1988129,13.2729902 C16.1568655,13.3164102 16.1067558,13.3662254 16.0486521,13.4223516 L15.7337941,13.7172352 L14.985568,14.3912 C14.7768,14.5928 14.62,14.7944 14.508,14.996 C14.3563333,15.2526667 14.2727222,15.5385 14.2490648,15.8453981 L14.242,16.032 L14.242,16.354 L13.108,16.354 L13.108,16.032 C13.108,15.647 13.1663333,15.3008889 13.2911019,14.9936667 L13.4309151,14.6966566 C13.6448595,14.2961157 14.1007273,13.8009091 14.788,13.19 L15.024096,12.94808 L15.264,12.686 C15.53,12.336 15.67,11.972 15.67,11.58 C15.67,11.02 15.516,10.586 15.208,10.278 C14.872,9.942 14.41,9.788 13.822,9.788 C13.136,9.788 12.618,10.012 12.268,10.474 C12.0066667,10.8224444 11.8559506,11.2815062 11.8256845,11.8610178 L11.82,12.084 L10.7,12.084 C10.7,11.104 10.98,10.32 11.526,9.732 C12.1,9.116 12.884,8.808 13.878,8.808 Z" id="形状" fill="#A0A1B2" fill-rule="nonzero"></path>
    </g>
</svg>