<?xml version="1.0" encoding="UTF-8"?>
<svg width="30px" height="30px" viewBox="0 0 30 30" version="1.1" xmlns="http://www.w3.org/2000/svg" xmlns:xlink="http://www.w3.org/1999/xlink">
    <!-- Generator: Sketch 59 (86127) - https://sketch.com -->
    <title>Shape</title>
    <desc>Created with Sketch.</desc>
    <defs>
        <circle id="path-1" cx="15" cy="15" r="15"></circle>
    </defs>
    <g id="PC版" stroke="none" stroke-width="1" fill="none" fill-rule="evenodd">
        <g id="1.我的资产" transform="translate(-1329.000000, -25.000000)">
            <g id="编组-11" transform="translate(1320.000000, 20.000000)">
                <g id="Shape" transform="translate(9.000000, 5.000000)">
                    <mask id="mask-2" fill="white">
                        <use xlink:href="#path-1"></use>
                    </mask>
                    <use id="Mask" fill="#212022" xlink:href="#path-1"></use>
                    <path d="M17.6988821,29.9929191 L17.1254552,29.9929191 L16.2214639,30 L4.0025883,30 L4.0025883,29.4032694 C4.0025883,29.4032694 3.7373231,26.0700035 8.57764699,25.2167816 C8.57764699,25.2167816 12.2622514,24.7123317 12.5202333,23.6846601 C12.5202333,23.6846601 12.6608274,23.5703215 12.5570771,22.3768348 C12.3359139,19.8356863 10.6963027,18.6399326 10.0330644,17.6683732 C9.36982602,16.6967119 9.31459802,15.5756897 9.31459802,15.5756897 C9.31459802,15.2955105 9.43027796,15.1928376 9.62265927,15.0128862 C9.86047372,14.7902456 9.78909673,14.5537744 9.74368872,14.3032688 C9.57089715,13.3521879 9.55565231,11.8242691 9.71987965,10.8672281 C9.75672343,9.7274848 10.7883996,8.81201216 10.7883996,8.81201216 C10.9819865,8.64545839 11.1760002,8.46222123 11.3118727,8.24243342 C11.3498215,8.18122701 11.3847315,8.11558868 11.4054263,8.04600236 C11.4831574,7.78362733 11.2200018,7.59099142 11.2727937,7.31193299 C11.3204369,7.06030664 11.745685,7.04792782 12.0028632,7.03422451 C12.5820414,7.00330292 13.164133,6.98017541 13.7424072,7.02510595 C18.0702584,7.36157564 19.4931769,8.97734333 19.4931769,8.97734333 C19.8300953,9.38650677 20.0520622,9.88688126 20.1855989,10.3997365 C20.2255821,10.5530709 20.2598892,10.7095891 20.2784493,10.8672536 C20.4133924,11.6533344 20.4128901,12.4730876 20.3709229,13.2674465 C20.3509313,13.6461977 20.3075325,14.0190143 20.2527063,14.3937921 C20.2239496,14.5899175 20.2386921,14.7724415 20.3679844,14.9291635 C20.4759792,15.0602874 20.5995452,15.151906 20.652538,15.3241907 C20.6773517,15.4047549 20.6838313,15.4917633 20.6838313,15.5757151 C20.6838313,15.5757151 20.6285029,16.6967374 19.9652645,17.6683987 C19.3020262,18.6399581 17.6623899,19.8357117 17.4413523,22.3768602 C17.3375016,23.570347 17.4781961,23.6846856 17.4781961,23.6846856 C17.7360775,24.7123317 21.4207824,25.216807 21.4207824,25.216807 C26.3152041,26.1373993 25.9957406,29.4032948 25.9957406,29.4032948 L25.9957406,30 L22.7734792,30 L23.28118,29.9929446 L22.8476439,29.9929446 L21.9489017,29.9929446 L17.6988821,29.9929446 L17.6988821,29.9929191 Z" fill="#CCD4E3" fill-rule="nonzero" opacity="0.940104167" mask="url(#mask-2)"></path>
                </g>
            </g>
        </g>
    </g>
</svg>