<?xml version="1.0" encoding="UTF-8"?>
<svg width="55px" height="38px" viewBox="0 0 55 38" version="1.1" xmlns="http://www.w3.org/2000/svg" xmlns:xlink="http://www.w3.org/1999/xlink">
    <!-- Generator: Sketch 52.5 (67469) - http://www.bohemiancoding.com/sketch -->
    <title>矩形</title>
    <desc>Created with Sketch.</desc>
    <defs>
        <rect id="path-1" x="0" y="0" width="54.0145985" height="37.9562044" rx="2.91970803"></rect>
    </defs>
    <g id="OTC" stroke="none" stroke-width="1" fill="none" fill-rule="evenodd">
        <g id="法币交易-输入购买数量及支付方式" transform="translate(-268.000000, -1427.000000)">
            <g id="分组-3" transform="translate(0.000000, 1089.000000)">
                <g id="矩形" transform="translate(268.000000, 338.000000)">
                    <mask id="mask-2" fill="white">
                        <use xlink:href="#path-1"></use>
                    </mask>
                    <use id="蒙版" fill="#FFFFFF" xlink:href="#path-1"></use>
                    <path d="M4.37956204,19.2642336 L11.0423358,19.2642336 C12.4729999,19.2642336 13.5902636,19.6048628 14.3941606,20.2861314 C15.1708068,20.9401493 15.5591241,21.8257852 15.5591241,22.9430657 C15.5591241,23.760588 15.3547466,24.4554716 14.9459854,25.0277372 C14.5235989,25.5727521 13.9581544,25.9746946 13.249635,26.2335766 C14.2170365,26.4243319 14.9459829,26.8126491 15.4364964,27.3985401 C15.9270098,27.9844312 16.1722628,28.7746909 16.1722628,29.7693431 C16.1722628,31.2272579 15.6681316,32.3036462 14.659854,32.9985401 C13.8014556,33.5708058 12.5956282,33.8569343 11.0423358,33.8569343 L4.37956204,33.8569343 L4.37956204,19.2642336 Z M6.60729927,21.1036496 L6.60729927,25.4569343 L10.449635,25.4569343 C11.4579126,25.4569343 12.1936716,25.2798071 12.6569343,24.9255474 C13.1065716,24.5576624 13.3313869,23.9854053 13.3313869,23.2087591 C13.3313869,22.472989 13.1065716,21.9416075 12.6569343,21.6145985 C12.2209224,21.2739642 11.4987885,21.1036496 10.4905109,21.1036496 L6.60729927,21.1036496 Z M6.60729927,27.2759124 L6.60729927,32.0175182 L10.7357664,32.0175182 C11.6486664,32.0175182 12.3844254,31.8676414 12.9430657,31.5678832 C13.6107089,31.1727474 13.9445255,30.5596149 13.9445255,29.7284672 C13.9445255,28.8700687 13.6856474,28.243311 13.1678832,27.8481752 C12.6637444,27.4666648 11.8734847,27.2759124 10.7970803,27.2759124 L6.60729927,27.2759124 Z M22.3942639,23.0043796 C23.9475563,23.0043796 25.0920704,23.3926968 25.8278405,24.1693431 C26.468233,24.8506117 26.7884244,25.8316238 26.7884244,27.1124088 L26.7884244,33.8569343 L24.7855047,33.8569343 L24.7855047,32.3649635 C24.3903689,32.8827276 23.8726126,33.3119204 23.2322201,33.6525547 C22.5373261,33.9795637 21.7266286,34.1430657 20.8001033,34.1430657 C19.7100735,34.1430657 18.8448753,33.8637498 18.2044828,33.3051095 C17.550465,32.7328439 17.2234609,31.976647 17.2234609,31.0364964 C17.2234609,29.7012099 17.7480299,28.7133852 18.7971836,28.0729927 C19.6828328,27.5279778 20.840972,27.2554745 22.2716361,27.2554745 L24.642439,27.2350365 L24.642439,26.9693431 C24.642439,25.4978029 23.8453667,24.7620438 22.2511982,24.7620438 C21.5018027,24.7620438 20.9295456,24.8982955 20.5344098,25.1708029 C20.0575218,25.4841865 19.7782059,25.9474422 19.6964536,26.5605839 L17.5504682,26.5605839 C17.7139727,25.3070497 18.2453543,24.3805383 19.1446288,23.7810219 C19.9076497,23.2632578 20.9908505,23.0043796 22.3942639,23.0043796 Z M24.642439,29.4423358 L24.642439,28.8905109 L22.4147018,28.9109489 C20.4390228,28.9109489 19.4511982,29.5990199 19.4511982,30.9751825 C19.4511982,31.397569 19.6078876,31.7450108 19.9212712,32.0175182 C20.2346547,32.2900257 20.6910978,32.4262774 21.2906142,32.4262774 C22.2580157,32.4262774 23.0687131,32.153774 23.722731,31.6087591 C24.3358728,31.0501189 24.642439,30.327985 24.642439,29.4423358 Z M34.0323233,23.0043796 C36.6620202,23.0043796 37.9768489,24.4486474 37.9768489,27.3372263 L37.9768489,33.8569343 L35.8104255,33.8569343 L35.8104255,27.5211679 C35.8104255,25.7226187 34.9861029,24.8233577 33.3374328,24.8233577 C32.6970403,24.8233577 32.1588462,25.0413604 31.7228343,25.4773723 C31.2186955,25.981511 30.9257544,26.6559568 30.8440022,27.5007299 L30.8440022,33.8569343 L28.6775788,33.8569343 L28.6775788,23.2905109 L30.8440022,23.2905109 L30.8440022,24.5985401 C31.239138,24.080776 31.7092063,23.6856461 32.2542212,23.4131387 C32.7583599,23.1406312 33.3510547,23.0043796 34.0323233,23.0043796 Z M39.8660033,18.9781022 L42.0324266,18.9781022 L42.0324266,27.6437956 L46.6105288,23.2905109 L49.4105288,23.2905109 L44.7302368,27.6437956 L49.8192879,33.8569343 L47.0397259,33.8569343 L43.238266,29.0335766 L42.0324266,30.1576642 L42.0324266,33.8569343 L39.8660033,33.8569343 L39.8660033,18.9781022 Z" id="Bank" fill="#222222" fill-rule="nonzero" mask="url(#mask-2)"></path>
                    <rect fill="#222222" mask="url(#mask-2)" x="-4.37956204" y="7.29927007" width="61.3138686" height="10.2189781"></rect>
                </g>
            </g>
        </g>
    </g>
</svg>