<?xml version="1.0" encoding="UTF-8"?>
<svg width="44px" height="44px" viewBox="0 0 44 44" version="1.1" xmlns="http://www.w3.org/2000/svg" xmlns:xlink="http://www.w3.org/1999/xlink">
    <!-- Generator: Sketch 59 (86127) - https://sketch.com -->
    <title>分组</title>
    <desc>Created with Sketch.</desc>
    <g id="PC版" stroke="none" stroke-width="1" fill="none" fill-rule="evenodd">
        <g id="4.5场外交易-购买-订单详情-订单已取消" transform="translate(-388.000000, -574.000000)" fill-rule="nonzero">
            <g id="分组" transform="translate(389.000000, 575.000000)">
                <circle id="椭圆形" stroke="#979797" stroke-width="0.724137931" cx="21" cy="21" r="21"></circle>
                <path d="M21.6034483,13.7586207 C21.8256318,13.7586207 22.0057471,13.938736 22.0057471,14.1609195 L22.0056207,19.9936207 L27.8390805,19.9942529 C28.061264,19.9942529 28.2413793,20.1743682 28.2413793,20.3965517 L28.2413793,21.6034483 C28.2413793,21.8256318 28.061264,22.0057471 27.8390805,22.0057471 L22.0056207,22.0056207 L22.0057471,27.8390805 C22.0057471,28.061264 21.8256318,28.2413793 21.6034483,28.2413793 L20.3965517,28.2413793 C20.1743682,28.2413793 19.9942529,28.061264 19.9942529,27.8390805 L19.9936207,22.0056207 L14.1609195,22.0057471 C13.938736,22.0057471 13.7586207,21.8256318 13.7586207,21.6034483 L13.7586207,20.3965517 C13.7586207,20.1743682 13.938736,19.9942529 14.1609195,19.9942529 L19.9936207,19.9936207 L19.9942529,14.1609195 C19.9942529,13.938736 20.1743682,13.7586207 20.3965517,13.7586207 L21.6034483,13.7586207 Z" id="形状结合" fill="#979797" transform="translate(21.000000, 21.000000) rotate(-45.000000) translate(-21.000000, -21.000000) "></path>
            </g>
        </g>
    </g>
</svg>