<?xml version="1.0" encoding="UTF-8"?>
<svg width="60px" height="53px" viewBox="0 0 60 53" version="1.1" xmlns="http://www.w3.org/2000/svg" xmlns:xlink="http://www.w3.org/1999/xlink">
    <!-- Generator: Sketch 59 (86127) - https://sketch.com -->
    <title>编组</title>
    <desc>Created with Sketch.</desc>
    <defs>
        <linearGradient x1="19.717594%" y1="46.2923413%" x2="95.0733547%" y2="58.4274935%" id="linearGradient-1">
            <stop stop-color="#FBCD00" offset="0%"></stop>
            <stop stop-color="#F2A926" offset="100%"></stop>
        </linearGradient>
        <linearGradient x1="30.3795167%" y1="41.3586009%" x2="79.2037893%" y2="69.641866%" id="linearGradient-2">
            <stop stop-color="#FBCD00" offset="0%"></stop>
            <stop stop-color="#F2A926" offset="100%"></stop>
        </linearGradient>
        <linearGradient x1="42.4262299%" y1="41.3586009%" x2="61.2730549%" y2="69.641866%" id="linearGradient-3">
            <stop stop-color="#FBCD00" offset="0%"></stop>
            <stop stop-color="#F2A926" offset="100%"></stop>
        </linearGradient>
        <polygon id="path-4" points="0.757714286 0.487619048 3.03390476 0.487619048 3.03390476 5.03904762 0.757714286 5.03904762"></polygon>
        <linearGradient x1="42.4293985%" y1="41.3586009%" x2="61.2683387%" y2="69.641866%" id="linearGradient-6">
            <stop stop-color="#FBCD00" offset="0%"></stop>
            <stop stop-color="#F2A926" offset="100%"></stop>
        </linearGradient>
        <linearGradient x1="19.717594%" y1="44.4427745%" x2="95.0733547%" y2="62.6315516%" id="linearGradient-7">
            <stop stop-color="#FBCD00" offset="0%"></stop>
            <stop stop-color="#F2A926" offset="100%"></stop>
        </linearGradient>
        <linearGradient x1="19.717594%" y1="44.4177292%" x2="95.0733547%" y2="62.6884795%" id="linearGradient-8">
            <stop stop-color="#FBCD00" offset="0%"></stop>
            <stop stop-color="#F2A926" offset="100%"></stop>
        </linearGradient>
        <linearGradient x1="19.717594%" y1="49.9189881%" x2="95.0733547%" y2="50.1841397%" id="linearGradient-9">
            <stop stop-color="#FBCD00" offset="0%"></stop>
            <stop stop-color="#F2A926" offset="100%"></stop>
        </linearGradient>
        <linearGradient x1="30.7416632%" y1="41.3586009%" x2="78.6647582%" y2="69.641866%" id="linearGradient-10">
            <stop stop-color="#FBCD00" offset="0%"></stop>
            <stop stop-color="#F2A926" offset="100%"></stop>
        </linearGradient>
    </defs>
    <g id="Beex-网站" stroke="none" stroke-width="1" fill="none" fill-rule="evenodd">
        <g id="Beex官网" transform="translate(-360.000000, -2868.000000)">
            <g id="编组-31" transform="translate(360.000000, 2686.000000)">
                <g id="编组" transform="translate(0.000000, 182.000000)">
                    <path d="M46.9255238,50.488381 L50.988381,48.0293333 C51.3274286,47.8293333 51.5369524,47.4674286 51.5445714,47.0731429 L51.5445714,42.1340952 L56.0055238,42.1340952 L52.5921905,45.5474286 C52.1502857,45.9931429 52.1502857,46.7093333 52.5921905,47.1531429 L56.0055238,50.5664762 L46.9255238,50.488381 Z M43.9540952,49.6102857 L43.9540952,48.2007619 L46.2988571,48.2007619 L43.9540952,49.6102857 Z M10.5788571,45.9245714 L49.268381,45.9245714 L49.268381,37.583619 L10.5788571,37.583619 L10.5788571,45.9245714 Z M15.8931429,49.6102857 L13.548381,48.2121905 L15.8931429,48.2121905 L15.8931429,49.6102857 Z M3.84171429,50.4750476 L7.25504762,47.0617143 C7.69695238,46.6198095 7.69695238,45.9017143 7.25504762,45.4579048 L3.84171429,42.0426667 L8.30266667,42.0426667 L8.30266667,46.9702857 C8.31028571,47.3645714 8.52171429,47.7264762 8.8607619,47.9264762 L12.9217143,50.383619 L3.84171429,50.4750476 Z M19.3521905,31.4731429 L19.3864762,31.4731429 L19.636,31.4731429 C18.788381,32.6179048 18.1769524,33.9226667 17.8379048,35.3074286 L13.4455238,35.3074286 C14.4874286,32.9779048 16.7998095,31.4750476 19.3521905,31.4731429 L19.3521905,31.4731429 Z M17.0798095,23.5740952 C17.7274286,22.1893333 19.1198095,21.3017143 20.6493333,21.2998095 C21.1293333,21.2998095 21.603619,21.3874286 22.0493333,21.5588571 C22.0798095,23.5569524 22.8588571,25.4712381 24.2340952,26.9207619 C23.3102857,28.896 20.9598095,29.7474286 18.9845714,28.823619 C17.0093333,27.9017143 16.156,25.5493333 17.0798095,23.5740952 L17.0798095,23.5740952 Z M29.923619,15.8464762 C33.0664762,15.816 35.6398095,18.3379048 35.6702857,21.4807619 C35.7007619,24.623619 33.1807619,27.1950476 30.0379048,27.2274286 C26.8950476,27.2598095 24.3217143,24.736 24.2912381,21.5950476 C24.2912381,21.5740952 24.2912381,21.5569524 24.2912381,21.5379048 C24.2912381,18.4179048 26.803619,15.8788571 29.923619,15.8464762 L29.923619,15.8464762 Z M36.1598095,30.663619 C37.8645714,31.7302857 39.1350476,33.368381 39.7445714,35.2845714 L32.323619,35.2845714 L36.1598095,30.663619 Z M27.4779048,35.3074286 L20.1598095,35.3074286 C20.7579048,33.4312381 21.988381,31.8217143 23.6417143,30.7550476 L27.4779048,35.3074286 Z M25.7921905,29.7645714 C26.6131429,29.5188571 27.4626667,29.3931429 28.3198095,29.3893333 L31.5502857,29.3893333 C32.3674286,29.3855238 33.1807619,29.4998095 33.963619,29.7321905 L29.923619,34.6579048 L25.7921905,29.7645714 Z M37.8893333,21.5588571 C38.3369524,21.3874286 38.8112381,21.2998095 39.2893333,21.2998095 C41.4702857,21.3531429 43.1921905,23.1645714 43.1369524,25.3455238 C43.0817143,27.5245714 41.2702857,29.248381 39.0912381,29.1931429 C37.5940952,29.1569524 36.2493333,28.2750476 35.6150476,26.9207619 C37.0207619,25.4845714 37.8340952,23.5702857 37.8893333,21.5588571 L37.8893333,21.5588571 Z M46.4017143,35.3074286 L42.043619,35.3074286 C41.7026667,33.9188571 41.0912381,32.6121905 40.2455238,31.4617143 L40.4969524,31.4617143 C43.0512381,31.4655238 45.363619,32.9721905 46.4017143,35.3074286 L46.4017143,35.3074286 Z M59.5102857,50.8064762 L55.0512381,46.2998095 L59.6017143,41.7474286 C60.0417143,41.2998095 60.0340952,40.5798095 59.5864762,40.1379048 C59.3750476,39.9321905 59.0912381,39.8140952 58.7940952,39.8140952 L51.5445714,39.8140952 L51.5445714,36.4007619 C51.5445714,35.7702857 51.036,35.2617143 50.4074286,35.2617143 L48.8474286,35.2617143 C48.0226667,32.7131429 46.0855238,30.6788571 43.5788571,29.7321905 C46.0645714,27.3645714 46.1617143,23.4312381 43.7940952,20.9455238 C42.1979048,19.2674286 39.7979048,18.6198095 37.5712381,19.2617143 C36.3426667,15.0693333 31.9502857,12.6674286 27.7579048,13.8940952 C25.1712381,14.6521905 23.148381,16.6750476 22.3902857,19.2617143 C19.0817143,18.3055238 15.6245714,20.2140952 14.668381,23.5245714 C14.5064762,24.0845714 14.4264762,24.663619 14.4245714,25.2464762 C14.4226667,26.9455238 15.123619,28.568381 16.3598095,29.7321905 C13.8226667,30.6750476 11.8588571,32.7302857 11.0340952,35.3074286 L9.43980952,35.3074286 C8.8112381,35.3074286 8.30266667,35.816 8.30266667,36.4445714 L8.30266667,39.8598095 L1.09885714,39.8598095 C0.470285714,39.8864762 -0.0154285714,40.4179048 0.0112380952,41.0445714 C0.0226666667,41.3245714 0.140761905,41.5931429 0.336952381,41.7950476 L4.88933333,46.3455238 L0.336952381,50.8979048 C-0.108761905,51.3398095 -0.112571429,52.0598095 0.331238095,52.5074286 C0.544571429,52.7245714 0.839809524,52.844794 1.14457143,52.8426667 L17.076,52.8426667 C17.7045714,52.8426667 18.2150476,52.3340952 18.2150476,51.7055238 L18.2150476,48.2921905 L41.6798095,48.2921905 L41.6798095,51.7055238 C41.6798095,52.3340952 42.188381,52.8426667 42.8169524,52.8426667 L58.748381,52.8426667 C59.3769524,52.8807619 59.9140952,52.4026667 59.9521905,51.7740952 C59.9750476,51.3988571 59.8093333,51.0350476 59.5102857,50.8064762 L59.5102857,50.8064762 Z" id="Fill-1" fill="url(#linearGradient-1)"></path>
                    <path d="M37.4611429,7.62 C37.4744762,7.62761905 37.4878095,7.6352381 37.5030476,7.64285714 C38.0420952,7.93619048 38.716381,7.74952381 39.0268571,7.22190476 L40.1659048,5.22952381 C40.4573333,4.67333333 40.2401905,3.98571429 39.684,3.69428571 C39.1601905,3.42 38.5144762,3.59333333 38.196381,4.09238095 L37.0592381,6.06190476 C36.7392381,6.60285714 36.9201905,7.3 37.4611429,7.62" id="Fill-3" fill="url(#linearGradient-2)"></path>
                    <g transform="translate(27.619048, 0.464190)">
                        <mask id="mask-5" fill="white">
                            <use xlink:href="#path-4"></use>
                        </mask>
                        <use id="Clip-6" fill="url(#linearGradient-3)" xlink:href="#path-4"></use>
                        <path d="M1.89485714,5.03904762 C2.52342857,5.03904762 3.03390476,4.52857143 3.03390476,3.9 L3.03390476,1.62571429 C3.03390476,0.997142857 2.52342857,0.486666667 1.89485714,0.486666667 C1.26628571,0.488571429 0.757714286,0.997142857 0.757714286,1.62571429 L0.757714286,3.9 C0.757714286,4.52857143 1.26628571,5.03904762 1.89485714,5.03904762" id="Fill-5" fill="url(#linearGradient-6)" mask="url(#mask-5)"></path>
                    </g>
                    <path d="M44.8281905,13.9500952 C44.8567619,13.9348571 44.8834286,13.9177143 44.9100952,13.9024762 L46.879619,12.7634286 C47.4205714,12.4510476 47.6091429,11.7615238 47.3005714,11.2148571 C46.9900952,10.6700952 46.2948571,10.479619 45.7481905,10.792 C45.7462857,10.7939048 45.744381,10.7939048 45.7405714,10.7958095 L43.7729524,11.9329524 C43.2167619,12.224381 43.0015238,12.912 43.2910476,13.4681905 C43.584381,14.0262857 44.272,14.239619 44.8281905,13.9500952" id="Fill-7" fill="url(#linearGradient-7)"></path>
                    <path d="M12.1598095,12.7632381 L14.1293333,13.9022857 C14.6702857,14.220381 15.3693333,14.0375238 15.6855238,13.4965714 L15.6874286,13.4927619 C16.003619,12.948 15.8169524,12.2508571 15.2740952,11.9365714 C15.2702857,11.9346667 15.268381,11.9327619 15.2664762,11.9327619 L13.2988571,10.795619 C12.7540952,10.4813333 12.0588571,10.6641905 11.7426667,11.2108571 C11.7407619,11.2127619 11.7407619,11.2146667 11.7388571,11.2165714 C11.4302857,11.7613333 11.6188571,12.4508571 12.1598095,12.7632381" id="Fill-9" fill="url(#linearGradient-8)"></path>
                    <path d="M40.5405714,40.6093333 L19.3062857,40.6093333 C18.6777143,40.6093333 18.1691429,41.1198095 18.1691429,41.748381 C18.1691429,42.3769524 18.6777143,42.8855238 19.3062857,42.8855238 L40.5405714,42.8855238 C41.1691429,42.883619 41.6777143,42.3750476 41.6777143,41.7464762 C41.6758095,41.1198095 41.1691429,40.6112381 40.5405714,40.6093333" id="Fill-11" fill="url(#linearGradient-9)"></path>
                    <path d="M19.9779048,7.22209524 C20.2693333,7.77828571 20.9569524,7.99352381 21.5131429,7.70209524 C22.0712381,7.41257143 22.2864762,6.72304762 21.9950476,6.16685714 C21.9798095,6.14019048 21.9626667,6.11161905 21.9474286,6.08304762 L20.8198095,4.09257143 C20.4826667,3.56114286 19.7798095,3.40495238 19.248381,3.744 C18.7493333,4.06019048 18.5779048,4.70780952 18.8521905,5.22971429 L19.9779048,7.22209524 Z" id="Fill-13" fill="url(#linearGradient-10)"></path>
                </g>
            </g>
        </g>
    </g>
</svg>