<?xml version="1.0" encoding="UTF-8"?>
<svg width="58px" height="49px" viewBox="0 0 58 49" version="1.1" xmlns="http://www.w3.org/2000/svg" xmlns:xlink="http://www.w3.org/1999/xlink">
    <!-- Generator: Sketch 59 (86127) - https://sketch.com -->
    <title>Fill 1</title>
    <desc>Created with Sketch.</desc>
    <defs>
        <linearGradient x1="19.717594%" y1="43.8323427%" x2="95.0733547%" y2="64.0190607%" id="linearGradient-1">
            <stop stop-color="#FBCD00" offset="0%"></stop>
            <stop stop-color="#F2A926" offset="100%"></stop>
        </linearGradient>
    </defs>
    <g id="Beex-网站" stroke="none" stroke-width="1" fill="none" fill-rule="evenodd">
        <g id="Beex官网" transform="translate(-708.000000, -2689.000000)" fill="url(#linearGradient-1)">
            <g id="编组-31" transform="translate(360.000000, 2686.000000)">
                <path d="M393.331497,51.9981486 L395.142332,51.9981486 L395.142332,50.1727056 L393.331497,50.1727056 L393.331497,51.9981486 Z M396.956841,51.9981486 L398.767677,51.9981486 L398.767677,50.1727056 L396.956841,50.1727056 L396.956841,51.9981486 Z M357.07989,51.9981486 L358.890725,51.9981486 L358.890725,50.1727056 L357.07989,50.1727056 L357.07989,51.9981486 Z M404.20202,34.6434806 L386.984389,34.6434806 L386.984389,35.3266332 C388.609734,38.2425284 391.94674,40.127215 395.594123,40.127215 C399.239669,40.127215 402.576676,38.2517852 404.20202,35.3266332 L404.20202,34.6434806 Z M388.798898,32.8161862 L402.394858,32.8161862 L402.394858,32.1089659 L395.390266,17.107379 C395.248852,17.0833113 395.101928,17.0573922 394.951331,17.0259191 L388.798898,32.0830468 L388.798898,32.8161862 Z M397.862259,15.4411531 C398.863177,15.4411531 399.676768,14.6209997 399.676768,13.6120074 C399.676768,12.6048664 398.863177,11.784713 397.862259,11.784713 C397.415978,11.8124835 396.971534,11.8791325 396.536272,11.9865115 C394.756657,12.3530812 392.066116,12.9066385 388.345271,10.7349907 C382.81359,7.52472891 380.117539,7.3007141 377.665748,9.83337741 L377.015611,10.5072732 L376.367309,9.83337741 C373.915519,7.3007141 371.219467,7.53028299 365.687787,10.7349907 C361.966942,12.8899762 359.280073,12.3364189 357.496786,11.9865115 C357.061524,11.8791325 356.61708,11.8124835 356.170799,11.784713 C355.168044,11.784713 354.35629,12.6048664 354.35629,13.6120074 C354.35629,14.6209997 355.168044,15.4411531 356.170799,15.4411531 C357.74472,15.4411531 358.62259,15.3245173 361.366391,14.5617561 C361.726354,14.4599312 362.15978,14.3284845 362.640955,14.1785242 C364.650138,13.5527638 367.403122,12.7011373 369.764922,12.7011373 C371.417815,12.7011373 372.745638,13.5064798 373.89899,14.2211055 C374.932966,14.8487173 375.9045,15.4448559 377.002755,15.4448559 C378.104683,15.4448559 379.070707,14.8487173 380.108356,14.2211055 C381.28742,13.5249934 382.609734,12.7196509 384.268136,12.7196509 L384.268136,12.7011373 C386.629936,12.7011373 389.38292,13.5361016 391.392103,14.1785242 C391.876951,14.3284845 392.304867,14.4599312 392.66483,14.5617561 C395.410468,15.32822 396.284665,15.4411531 397.862259,15.4411531 L397.862259,15.4411531 Z M377.926538,41.0362338 L377.926538,17.1832848 C377.636364,17.235123 377.33517,17.2665961 377.02112,17.2665961 C376.703398,17.2665961 376.402204,17.235123 376.112029,17.1851362 L376.112029,41.0362338 L377.926538,41.0362338 Z M371.577594,42.8653795 C370.578512,42.8672309 369.770432,43.6836816 369.768595,44.6908225 L369.768595,44.7019307 L376.108356,44.7019307 L376.108356,46.5292251 L367.957759,46.5292251 C366.955005,46.5292251 366.141414,47.3475271 366.141414,48.3583708 L366.141414,50.1819624 L387.886134,50.1819624 L387.886134,48.3583708 C387.884298,47.3512298 387.07438,46.5347792 386.075298,46.5329278 L382.455464,46.5329278 L382.455464,44.6908225 L384.266299,44.6908225 C384.262626,43.6836816 383.454545,42.8672309 382.455464,42.8653795 L371.577594,42.8653795 Z M358.271809,17.1906903 C358.077135,17.2184607 357.887971,17.2369743 357.700643,17.2536366 L351.641873,32.0830468 L351.641873,32.8161862 L365.237833,32.8161862 L365.237833,32.1089659 L358.271809,17.1906903 Z M367.039486,34.6434806 L349.823691,34.6434806 L349.823691,35.3266332 C351.447199,38.2425284 354.784206,40.127215 358.431589,40.127215 C362.078972,40.127215 365.414141,38.2517852 367.039486,35.3266332 L367.039486,34.6434806 Z M375.030303,6.78048135 C375.713499,7.05263158 376.374656,7.45622851 377.02112,8.00978577 C377.665748,7.45437715 378.326905,7.05078022 379.010101,6.77677863 C378.977043,5.69743454 378.10101,4.83099709 377.02112,4.82914573 C375.939394,4.82914573 375.061524,5.69743454 375.030303,6.78048135 L375.030303,6.78048135 Z M406,32.8161862 L406,35.7839196 L405.895317,35.9838667 C404.018365,39.6051309 399.970615,41.952658 395.59596,41.952658 C391.22314,41.952658 387.17539,39.610685 385.261708,35.9838667 L385.157025,35.7839196 L385.157025,32.8161862 L386.988062,32.8161862 L386.988062,31.7220312 L393.160698,16.6056599 C392.859504,16.5279027 392.536272,16.4390373 392.187328,16.3409151 C391.808999,16.2353875 391.359045,16.0983867 390.863177,15.9225073 C388.966024,15.3356255 386.359963,14.5284316 384.271809,14.5284316 C383.118457,14.5284316 382.123049,15.1375298 381.063361,15.778101 C380.631772,16.0428458 380.194674,16.3075906 379.737374,16.5408622 L379.737374,41.0362338 L382.455464,41.0362338 C384.455464,41.0380852 386.077135,42.6728379 386.078972,44.6908225 C388.080808,44.6945253 389.704316,46.3274266 389.704316,48.3454113 L389.704316,50.1727056 L391.520661,50.1727056 L391.520661,51.9981486 L389.702479,51.9981486 L389.702479,52 L364.332415,52 L364.332415,51.9981486 L360.705234,51.9981486 L360.705234,50.1727056 L364.332415,50.1727056 L364.332415,48.3583708 C364.334252,46.3403861 365.955923,44.7056334 367.957759,44.7019307 L367.957759,44.6908225 C367.959596,42.6728379 369.581267,41.0380852 371.583104,41.0362338 L374.299357,41.0362338 L374.299357,16.5519704 C373.843893,16.3224015 373.406795,16.0613594 372.977043,15.798466 C371.922865,15.1523407 370.909091,14.5487966 369.768595,14.5487966 C367.680441,14.5487966 365.076217,15.3578418 363.179063,15.9447236 C362.677686,16.0983867 362.227732,16.2409415 361.854913,16.3631314 C361.1809,16.5538217 360.61157,16.7056334 360.108356,16.8296747 L367.048669,31.6998149 L367.048669,32.8161862 L368.842975,32.8161862 L368.842975,35.7839196 L368.738292,35.9838667 C366.865014,39.6051309 362.81359,41.952658 358.440771,41.952658 C354.066116,41.952658 350.018365,39.610685 348.102847,35.9838667 L348,35.7839196 L348,32.8161862 L349.832874,32.8161862 L349.832874,31.7220312 L355.726354,17.2925152 C353.930211,17.1295953 352.494031,15.6411002 352.431589,13.77863 C352.363636,11.7606453 353.932048,10.0685004 355.933884,10.0018514 C356.014692,9.99814864 356.097337,9.99814864 356.178145,10.0018514 C356.747475,10.0259191 357.311295,10.1055276 357.865932,10.2388257 C359.555556,10.5905845 361.660239,11.0219519 364.786042,9.21317112 C368.027548,7.32293044 370.782369,6.1584237 373.245179,6.36207353 C373.478421,4.46813012 375.07989,3 377.022957,3 C378.966024,3 380.565657,4.46627876 380.800735,6.36207353 C383.259871,6.16397778 386.012856,7.33774134 389.254362,9.21317112 C392.380165,11.027506 394.484848,10.5905845 396.176309,10.2388257 C396.729109,10.1055276 397.294766,10.0259191 397.862259,10.0018514 C399.864096,9.93335097 401.540863,11.5144142 401.608815,13.5305475 C401.676768,15.5485321 400.110193,17.2388257 398.108356,17.3091775 C398.025712,17.3110288 397.944904,17.3110288 397.862259,17.3091775 L397.862259,17.2869611 C397.730028,17.2869611 397.603306,17.2869611 397.478421,17.2851098 L404.205693,31.6998149 L404.205693,32.8161862 L406,32.8161862 Z M377.926538,46.5162655 L379.737374,46.5162655 L379.737374,44.6926739 L377.926538,44.6926739 L377.926538,46.5162655 Z" id="Fill-1"></path>
            </g>
        </g>
    </g>
</svg>