<?xml version="1.0" encoding="UTF-8"?>
<svg width="68px" height="56px" viewBox="0 0 68 56" version="1.1" xmlns="http://www.w3.org/2000/svg" xmlns:xlink="http://www.w3.org/1999/xlink">
    <!-- Generator: Sketch 59 (86127) - https://sketch.com -->
    <title>编组 13</title>
    <desc>Created with Sketch.</desc>
    <defs>
        <linearGradient x1="39.6344034%" y1="41.3586009%" x2="65.4285036%" y2="69.641866%" id="linearGradient-1">
            <stop stop-color="#FBCD00" offset="0%"></stop>
            <stop stop-color="#F2A926" offset="100%"></stop>
        </linearGradient>
        <polygon id="path-2" points="0.000193569937 0.976 43.7698129 0.976 43.7698129 51.9996 0.000193569937 51.9996"></polygon>
        <linearGradient x1="27.7163691%" y1="41.3586009%" x2="83.1677079%" y2="69.641866%" id="linearGradient-4">
            <stop stop-color="#FBCD00" offset="0%"></stop>
            <stop stop-color="#F2A926" offset="100%"></stop>
        </linearGradient>
        <linearGradient x1="19.717594%" y1="42.6946334%" x2="95.0733547%" y2="66.6050693%" id="linearGradient-5">
            <stop stop-color="#FBCD00" offset="0%"></stop>
            <stop stop-color="#F2A926" offset="100%"></stop>
        </linearGradient>
        <linearGradient x1="40.6506272%" y1="41.3586009%" x2="63.9159218%" y2="69.641866%" id="linearGradient-6">
            <stop stop-color="#FBCD00" offset="0%"></stop>
            <stop stop-color="#F2A926" offset="100%"></stop>
        </linearGradient>
        <linearGradient x1="40.6675645%" y1="41.3586009%" x2="63.8907119%" y2="69.641866%" id="linearGradient-7">
            <stop stop-color="#FBCD00" offset="0%"></stop>
            <stop stop-color="#F2A926" offset="100%"></stop>
        </linearGradient>
        <polygon id="path-8" points="6.72481048 -1.13686838e-13 0.395042299 27.2110254 5.2962963 31.5602812 27.3706309 31.5602812 28.3839793 3.2564"></polygon>
    </defs>
    <g id="Beex-网站" stroke="none" stroke-width="1" fill="none" fill-rule="evenodd">
        <g id="Beex官网" transform="translate(-366.000000, -2683.000000)">
            <g id="编组-31" transform="translate(360.000000, 2686.000000)">
                <g id="编组-13" transform="translate(6.000000, 0.000000)">
                    <g id="编组" transform="translate(0.000000, 1.000000)">
                        <path d="M5.8678,9.7546 C5.7218,9.2106 5.1618,8.8826 4.6178,9.0286 C4.0718,9.1726 3.7458,9.7326 3.8918,10.2786 L4.5958,12.9326 C4.7138,13.3786 5.1178,13.6926 5.5818,13.6926 C5.6718,13.6926 5.7598,13.6806 5.8458,13.6586 C6.3918,13.5126 6.7158,12.9546 6.5718,12.4066 L5.8678,9.7546 Z" id="Fill-1" fill="url(#linearGradient-1)"></path>
                        <g transform="translate(0.000000, 0.023800)">
                            <mask id="mask-3" fill="white">
                                <use xlink:href="#path-2"></use>
                            </mask>
                            <g id="Clip-4"></g>
                            <path d="M34.5112,49.6096 C34.4592,49.8456 34.2272,49.9936 33.9912,49.9456 L14.6752,45.7576 C14.4392,45.7056 14.2892,45.4736 14.3392,45.2356 L21.5412,12.0176 C21.5432,12.0176 21.5432,12.0176 21.5432,12.0156 C21.5952,11.7816 21.8272,11.6316 22.0632,11.6816 L41.3792,15.8716 L41.3792,15.8716 C41.6152,15.9216 41.7652,16.1556 41.7152,16.3936 L34.5112,49.6096 Z M11.2112,42.2396 L2.2732,8.5396 L22.2232,3.2476 L24.0172,10.0136 L22.4952,9.6836 C21.8532,9.5436 21.1792,9.6636 20.6272,10.0236 C20.0712,10.3776 19.6812,10.9396 19.5432,11.5836 L18.3892,16.9076 L15.4252,14.8176 C15.3752,14.7816 15.3232,14.7516 15.2692,14.7256 C14.7592,14.4856 14.1492,14.7076 13.9092,15.2196 L9.8552,23.8856 C9.6452,24.3336 9.7872,24.8696 10.1912,25.1536 L15.7512,29.0816 L12.9992,41.7656 L11.2112,42.2396 Z M16.2452,26.7956 L12.0692,23.9776 L15.2432,17.1916 L17.9232,19.0596 L16.2452,26.7956 Z M43.3732,14.9556 C43.0172,14.4016 42.4552,14.0096 41.8112,13.8736 L26.2612,10.5016 L23.9372,1.7356 C23.7932,1.1916 23.2332,0.8656 22.6872,1.0096 L0.7612,6.8256 L0.7592,6.8256 C0.2132,6.9716 -0.1108,7.5316 0.0352,8.0756 L9.4972,43.7516 C9.6152,44.2016 10.0192,44.5116 10.4832,44.5136 C10.5692,44.5136 10.6592,44.5016 10.7472,44.4796 L12.5132,44.0096 L12.3412,44.8036 C12.0512,46.1416 12.9032,47.4656 14.2412,47.7536 L33.5572,51.9436 C33.7312,51.9816 33.9092,51.9996 34.0892,51.9996 C34.5632,51.9996 35.0272,51.8616 35.4272,51.6036 C35.9812,51.2496 36.3712,50.6876 36.5092,50.0436 L43.7132,16.8236 C43.8532,16.1816 43.7312,15.5076 43.3732,14.9556 L43.3732,14.9556 Z" id="Fill-3" fill="url(#linearGradient-4)" mask="url(#mask-3)"></path>
                        </g>
                        <path d="M27.2086,34.6138 C24.1166,31.6658 22.9966,29.2598 23.8786,27.4578 C24.2466,26.7118 24.9366,26.2338 25.6466,26.2338 L25.6686,26.2338 C26.4926,26.2438 27.2426,26.9058 27.7826,28.0958 C27.8246,28.1858 27.8786,28.2718 27.9446,28.3458 C28.3146,28.7718 28.9606,28.8158 29.3846,28.4438 C30.3706,27.5838 31.3266,27.2938 32.0826,27.6238 C32.7386,27.9098 33.1766,28.6398 33.2026,29.4798 C33.2606,31.4858 31.2446,33.2118 27.2086,34.6138 M32.9006,25.7478 C31.7106,25.2298 30.3466,25.3878 29.0386,26.1718 C28.1726,24.9158 26.9986,24.2078 25.6986,24.1878 C24.1946,24.1558 22.7606,25.0958 22.0446,26.5578 C19.9786,30.7718 24.7106,35.1058 26.2646,36.5298 C26.4566,36.7058 26.7046,36.7998 26.9566,36.7998 C27.0626,36.7998 27.1706,36.7818 27.2726,36.7478 C29.2786,36.0958 35.3806,34.1118 35.2466,29.4198 C35.1986,27.7918 34.2786,26.3518 32.9006,25.7478" id="Fill-5" fill="url(#linearGradient-5)"></path>
                        <path d="M22.7134,17.7994 C23.1934,17.7994 23.6094,17.4634 23.7114,16.9934 L24.2934,14.3114 C24.4134,13.7574 24.0634,13.2154 23.5114,13.0934 C22.9594,12.9754 22.4154,13.3254 22.2954,13.8774 L21.7134,16.5614 C21.6974,16.6314 21.6894,16.7054 21.6894,16.7774 C21.6914,17.3414 22.1494,17.7994 22.7134,17.7994" id="Fill-7" fill="url(#linearGradient-6)"></path>
                        <path d="M33.5454,44.0748 C32.9934,43.9548 32.4494,44.3048 32.3294,44.8588 L31.7474,47.5388 C31.7314,47.6128 31.7254,47.6848 31.7254,47.7588 C31.7254,48.3228 32.1834,48.7808 32.7474,48.7808 C33.2274,48.7808 33.6434,48.4448 33.7454,47.9728 L34.3274,45.2908 C34.4474,44.7388 34.0974,44.1968 33.5454,44.0748" id="Fill-9" fill="url(#linearGradient-7)"></path>
                    </g>
                    <g id="形状" transform="translate(35.000000, 23.767400)">
                        <mask id="mask-9" fill="white">
                            <use xlink:href="#path-8"></use>
                        </mask>
                        <g id="蒙版"></g>
                        <path d="M9,28.2326 C2.92486775,28.2326 -2,23.3077322 -2,17.2326 C-2,11.1574678 2.92486775,6.2326 9,6.2326 C15.0751322,6.2326 20,11.1574678 20,17.2326 C20,23.3077322 15.0751322,28.2326 9,28.2326 Z M10.1333333,10.1624627 L10.1333333,10.9200235 L11.1333333,10.9200235 L10.7907746,9.98052708 C10.5802837,10.0572762 10.3612633,10.1179726 10.1333333,10.1624627 Z M8.22222222,10.1698195 C7.99616741,10.1260205 7.78358314,10.0652166 7.58402665,9.98776949 L7.22222222,10.9200235 L8.22222222,10.9200235 L8.22222222,10.1698195 Z M8.22222222,9.32935562 L8.22222222,8.44354616 L7.22222222,8.44354616 L7.39367488,9.42873852 C7.66685622,9.38119687 7.94328372,9.34798615 8.22222219,9.32935555 Z M10.1333333,9.4310677 C10.3807219,9.4745605 10.6253309,9.52979807 10.8665864,9.59657168 L11.1333333,8.63280507 L10.1333333,8.63280507 L10.1333333,9.4310677 Z M10.1333333,24.368253 C10.3612633,24.4127431 10.5802837,24.4734395 10.7907746,24.5501886 L11.1333333,23.6106922 L10.1333333,23.6106922 L10.1333333,24.368253 Z M10.1333333,25.2320141 L10.1333333,26.0302768 L11.1333333,26.0302768 L10.8665864,25.0665102 C10.6253309,25.1332838 10.3807219,25.1885213 10.1333333,25.2320141 Z M8.22222222,25.3337263 C7.94328374,25.3150957 7.66685623,25.281885 7.39367488,25.2343433 L7.22222222,26.2195357 L8.22222222,26.2195357 L8.22222222,25.3337263 Z M8.22222222,24.3608962 L8.22222222,23.6106922 L7.22222222,23.6106922 L7.58402665,24.5429462 C7.78358314,24.4654991 7.99616741,24.4046952 8.22222222,24.3608962 Z M3.38169951,12.8920937 L4.07423146,13.2626753 L4.54603959,12.380974 L3.56113247,12.2078903 C3.52094849,12.4365513 3.46125732,12.6645256 3.38169951,12.8920937 Z M2.42489736,14.5451628 C2.27868604,14.7115803 2.1250363,14.859236 1.96403058,14.9886368 L2.59048403,15.7680956 L3.06245827,14.8864833 L2.42489736,14.5451628 Z M1.51773544,14.0595105 L0.748295011,13.6475879 L1.23020656,14.82937 C1.31268948,14.5672541 1.40873991,14.3103257 1.51773544,14.0595105 Z M2.4861648,12.4128832 C2.64024289,12.2114259 2.80420748,12.0170898 2.97756178,11.8306135 L1.77334754,12.0314467 L2.48616493,12.4128832 Z M15.694293,20.0468671 C15.8429781,19.8775771 16.0007076,19.7232078 16.1675338,19.5833869 L15.5251853,18.8169742 L15.0478358,19.6956877 L15.694293,20.0468671 Z M16.2566618,20.3523666 L17.0132165,20.763355 L16.5347003,19.5908379 C16.4550565,19.8499524 16.3621801,20.1040913 16.2566621,20.3523667 Z M15.3012872,22.0069668 C15.1466752,22.2124835 14.9818392,22.4107533 14.8072918,22.6010059 L16.0216149,22.3983892 L15.3012872,22.0069668 Z M14.7258883,21.694298 L14.0470866,21.3254405 L13.5696298,22.2040958 L14.5578877,22.356891 C14.5915397,22.1392345 14.6473458,21.9184437 14.7258883,21.694298 Z M14.7423831,13.0862774 C14.6680824,12.8688559 14.6118957,12.6510524 14.5735096,12.4326222 L13.5886025,12.6057059 L14.0965287,13.4671065 L14.7423831,13.0862774 Z M15.6121009,12.5734469 L16.3783272,12.1216404 L15.1061312,11.9051365 C15.2868301,12.1192835 15.4556903,12.3423803 15.6121009,12.5734469 Z M16.484143,14.2763958 C16.5694243,14.5092569 16.6438027,14.7466228 16.7068512,14.9878088 L17.165855,13.8738264 L16.484143,14.2763958 Z M15.6889141,14.7460001 L15.0356725,15.1317569 L15.5441581,15.9928275 L16.1706115,15.2133686 C16.0019411,15.0778077 15.8413437,14.9222125 15.6889141,14.7460001 Z M3.40823742,21.7481552 C3.47713115,21.9538334 3.52682821,22.1566881 3.55778171,22.356891 L4.54603959,22.2040958 L4.00386345,21.3638309 L3.40823742,21.7481552 Z M2.67278409,22.2227023 L1.96394523,22.6800766 L3.20935068,22.8093784 C3.02045384,22.6225363 2.84139776,22.4266982 2.67278409,22.2227023 Z M1.64157428,20.6121892 C1.52757065,20.3749209 1.42533756,20.1315861 1.33546712,19.8830097 L0.934355706,21.0651165 L1.64157428,20.6121892 Z M2.45813299,20.0892366 L3.12979744,19.6590793 L2.59048403,18.8169742 L1.9481356,19.5833869 C2.12877843,19.7347879 2.29875546,19.9032469 2.45813299,20.0892366 Z M9,21.4177852 C11.311414,21.4177852 13.1851852,19.544014 13.1851852,17.2326 C13.1851852,14.921186 11.311414,13.0474148 9,13.0474148 C6.68858605,13.0474148 4.81481481,14.921186 4.81481481,17.2326 C4.81481481,19.544014 6.68858605,21.4177852 9,21.4177852 Z M9,21.2326 C6.790861,21.2326 5,19.441739 5,17.2326 C5,15.023461 6.790861,13.2326 9,13.2326 C11.209139,13.2326 13,15.023461 13,17.2326 C13,19.441739 11.209139,21.2326 9,21.2326 Z" stroke="#F5B618" stroke-width="2" fill-rule="nonzero" mask="url(#mask-9)"></path>
                    </g>
                    <path d="M48,7.54201077 L44.4050539,8.5949461 L45.4579892,5 L44.4050539,1.4050539 L48,2.45798923 L51.5949461,1.4050539 L50.5420108,5 L51.5949461,8.5949461 L48,7.54201077 Z" id="星形" stroke="#F5B618" stroke-width="2" transform="translate(48.000000, 5.000000) rotate(-315.000000) translate(-48.000000, -5.000000) "></path>
                    <path d="M62,23.1183075 L62.2920108,22.1213203 L62,21.1243332 L61.7079892,22.1213203 L62,23.1183075 Z M61.0030129,22.1213203 L62,22.4133311 L62.9969871,22.1213203 L62,21.8293096 L61.0030129,22.1213203 Z M62,23.9133311 L59.4657141,24.6556063 L60.2079892,22.1213203 L59.4657141,19.5870344 L62,20.3293096 L64.5342859,19.5870344 L63.7920108,22.1213203 L64.5342859,24.6556063 L62,23.9133311 Z" id="星形" stroke="#F5B618" stroke-width="2" transform="translate(62.000000, 22.121320) rotate(-315.000000) translate(-62.000000, -22.121320) "></path>
                </g>
            </g>
        </g>
    </g>
</svg>