<?xml version="1.0" encoding="UTF-8"?>
<svg width="69px" height="65px" viewBox="0 0 69 65" version="1.1" xmlns="http://www.w3.org/2000/svg" xmlns:xlink="http://www.w3.org/1999/xlink">
    <!-- Generator: Sketch 59 (86127) - https://sketch.com -->
    <title>编组</title>
    <desc>Created with Sketch.</desc>
    <g id="Beex-网站" stroke="none" stroke-width="1" fill="none" fill-rule="evenodd">
        <g id="Beex官网" transform="translate(-1195.000000, -7121.000000)" stroke="#FFFFFF" stroke-width="2.3">
            <g id="编组-16" transform="translate(1168.000000, 7094.000000)">
                <g id="编组" transform="translate(28.000000, 28.000000)">
                    <path d="M6.45,18.6261 C8.279,20.1591 10.891,20.4061 12.284,19.1701 C13.685,17.9341 13.331,15.6851 11.51,14.1511 C9.688,12.6101 7.076,12.3711 5.675,13.6071 C4.282,14.8441 4.629,17.0941 6.45,18.6261 Z" id="Stroke-1"></path>
                    <path d="M54.9471,18.9806 L54.9471,18.9806 C56.3401,20.2166 58.9601,19.9776 60.7811,18.4366 C62.6111,16.9046 62.9571,14.6546 61.5561,13.4186 C60.1631,12.1816 57.5431,12.4206 55.7211,13.9546 C53.9001,15.4956 53.5541,17.7366 54.9471,18.9806 Z" id="Stroke-3"></path>
                    <g id="编组-15" transform="translate(0.150401, 0.150505)">
                        <path d="M51.7555986,51.2167954 C49.2915986,50.8207954 46.5385986,50.4997954 43.5645986,50.2687954 C43.6955986,49.9727954 43.7865986,49.6257954 43.8275986,49.2387954 C44.2735986,44.8297954 44.2325986,43.1977954 44.5035986,41.1057954 C44.6105986,40.2977954 45.8465986,35.7397954 47.2885986,40.0747954 C48.5495986,44.5577954 50.1325986,48.3817954 51.7555986,51.2167954 Z M33.2465986,56.9447954 C26.8025986,56.9447954 21.5855986,55.8477954 21.5855986,54.4957954 C21.5855986,53.1447954 26.8105986,52.0487954 33.2465986,52.0487954 C39.6825986,52.0487954 44.9066102,53.1447954 44.9066102,54.4957954 C44.9155986,55.8477954 39.6915986,56.9447954 33.2465986,56.9447954 Z M19.8385986,40.2727954 L19.8385986,40.2727954 C21.2805986,35.9387954 22.5175986,40.4947954 22.6245986,41.3027954 C22.8965986,43.3967954 22.8625986,45.0277954 23.2995986,49.4367954 C23.3245986,49.7247954 23.3905986,49.9877954 23.4735986,50.2367954 C20.6125986,50.4427954 17.9515986,50.7307954 15.5535986,51.1017954 C17.1185986,48.2907954 18.6275986,44.5907954 19.8385986,40.2727954 Z M36.3125986,19.9267954 C36.4275986,19.3827954 36.7905986,18.7887954 37.3335986,18.1797954 C40.1855986,15.4267954 44.3305986,14.3147954 48.0965986,13.0537954 C44.5445986,19.4477954 42.5095986,24.8457954 41.4045986,29.4037954 C37.9195986,26.8237954 35.5125986,23.7667954 36.3125986,19.9267954 Z M40.3665986,42.3417954 C37.3095986,38.9297954 34.5485986,34.0927954 34.5485986,34.0927954 C34.5485986,34.0927954 32.4885986,29.1727954 36.4435986,31.4547954 C37.8365986,32.3457954 39.2215986,33.1117954 40.5645986,33.7707954 C40.1035986,37.1577954 40.1605986,39.9847954 40.3665986,42.3417954 Z M66.0445986,31.6947954 L66.0445986,31.6947954 C63.3505986,29.9637954 57.8785986,26.4607954 54.6725986,22.3487954 C53.5605986,20.9317954 52.8105986,19.0447954 52.6705986,17.5197954 C52.6705986,17.4877954 51.7385986,12.6087954 55.6455986,5.48779537 C56.8895986,3.23079537 54.4665986,2.91679537 53.7085986,4.02979537 C52.3235986,6.04879537 51.0715986,7.98579537 49.9505986,9.84779537 C45.1545986,11.3887954 35.6285986,13.8527954 29.7525986,13.2267954 C27.5115986,12.9877954 25.6075986,12.3367954 24.2065986,11.1917954 C21.0585986,8.61179537 19.9535986,1.14579537 19.9535986,1.14579537 C19.6825986,-0.609204629 17.9275986,-0.0242046293 17.9105986,0.766795371 C17.9015986,1.23679537 18.1245986,3.40379537 18.5125986,5.05979537 C19.8635986,10.9027954 23.0275986,18.6647954 23.0275986,18.6647954 C24.6185986,23.5357954 33.5185986,42.4477954 40.7785986,45.7447954 C40.9275986,46.7907954 41.0675986,47.7137954 41.1245986,48.5297954 C41.1745986,49.1967954 41.2735986,49.7167954 41.4045986,50.1287954 C38.8095986,49.9727954 36.0725986,49.8987954 33.2375986,49.8987954 C30.6585986,49.8987954 28.1615986,49.9637954 25.7725986,50.0957954 C25.8705986,49.7247954 25.9445986,49.2717954 25.9855986,48.7277954 C26.4645986,42.5637954 31.1695986,30.1367954 13.4025986,4.22779537 C12.6365986,3.11479537 10.2215986,3.42779537 11.4665986,5.68679537 C15.3715986,12.7977954 14.4415986,17.6767954 14.4415986,17.7177954 C14.3005986,19.2417954 13.5835986,21.1547954 12.4385986,22.5467954 C6.66159857,29.5927954 1.86559857,30.6807954 0.25059857,32.5427954 C-0.27640143,33.1447954 -0.27640143,35.9627954 3.35759857,34.6607954 C3.35759857,34.6607954 4.23159857,34.1167954 9.41359857,31.4217954 C11.1695986,30.5077954 12.9825986,31.6777954 13.3455986,31.9487954 C19.2125986,36.3177954 14.3095986,44.3267954 11.2515986,51.9007954 C6.18359857,53.0287954 3.07659857,54.5537954 3.07659857,56.2357954 C3.07659857,59.7297954 16.5835986,62.5647954 33.2465986,62.5647954 C49.9095986,62.5647954 63.4155986,59.7297954 63.4155986,56.2357954 C63.4155986,54.6447954 60.6225986,53.1947954 55.9995986,52.0817954 C55.9835986,52.0157954 55.9575986,51.9417954 55.9335986,51.8757954 C54.0055986,47.0707954 51.3025986,42.0697954 51.0465986,37.9327954 C52.0525986,38.2037954 52.9425986,38.3687954 53.6015986,38.3617954 C54.3185986,38.3527954 54.9025986,37.0677954 54.2105986,36.6627954 C53.3375986,36.1597954 52.3645986,35.6497954 51.3435986,35.1137954 C51.7305986,33.8537954 52.4965986,32.7157954 53.7825986,31.7597954 C54.1455986,31.4877954 56.0075986,30.2357954 57.7135986,31.2327954 C61.7515986,33.5977954 63.3915986,34.3557954 63.3915986,34.3557954 C66.7615986,35.7657954 66.8775986,32.2217954 66.0445986,31.6947954 Z" id="Stroke-5"></path>
                        <path d="M29.4889986,9.92192701 C31.3509986,9.92192701 33.1479986,8.00189537 33.4939986,5.64489537 C33.8399986,3.27889537 32.6119986,1.37589537 30.7419986,1.37589537 C28.8789986,1.37589537 27.0829986,3.29589537 26.7359986,5.65289537 C26.3979986,8.01889537 27.6269986,9.93089537 29.4889986,9.92192701 Z" id="Stroke-7"></path>
                    </g>
                </g>
            </g>
        </g>
    </g>
</svg>