<?xml version="1.0" encoding="UTF-8"?>
<svg width="54px" height="54px" viewBox="0 0 54 54" version="1.1" xmlns="http://www.w3.org/2000/svg" xmlns:xlink="http://www.w3.org/1999/xlink">
    <!-- Generator: Sketch 59 (86127) - https://sketch.com -->
    <title>编组 17</title>
    <desc>Created with Sketch.</desc>
    <g id="Beex-网站" stroke="none" stroke-width="1" fill="none" fill-rule="evenodd">
        <g id="Beex官网" transform="translate(-1003.000000, -4010.000000)">
            <g id="编组-16" transform="translate(982.000000, 3992.000000)">
                <g id="编组-17" transform="translate(21.000000, 18.000000)">
                    <g id="编组-14" transform="translate(4.000000, 2.000000)">
                        <path d="M29,1.73205081 L45.5166605,11.2679492 C47.373067,12.339746 48.5166605,14.3205081 48.5166605,16.4641016 L48.5166605,35.5358984 C48.5166605,37.6794919 47.373067,39.660254 45.5166605,40.7320508 L29,50.2679492 C27.1435935,51.339746 24.8564065,51.339746 23,50.2679492 L6.4833395,40.7320508 C4.62693304,39.660254 3.4833395,37.6794919 3.4833395,35.5358984 L3.4833395,16.4641016 C3.4833395,14.3205081 4.62693304,12.339746 6.4833395,11.2679492 L23,1.73205081 C24.8564065,0.660254038 27.1435935,0.660254038 29,1.73205081 Z" id="多边形" stroke="#FFC50E"></path>
                        <path d="M19.6038663,22.8879931 L15.2482061,22.8879931 C14.5622039,22.8879931 14,23.4460203 14,24.1291807 L14,29.0116362 C14,29.6947967 14.5622039,30.2528238 15.2482061,30.2528238 L19.5981875,30.2528238 L24.6239493,34.5197585 C25.1305006,34.9492703 25.913043,34.5930348 25.913043,33.9301662 L25.913043,19.1892316 C25.913043,18.526363 25.1282291,18.1690002 24.6216777,18.6018939 L19.6038663,22.8879931 Z" id="icon-音量中等" stroke="#FFC50E" stroke-width="1.94702635"></path>
                        <rect id="矩形" fill="#FFC50E" x="16" y="30" width="3" height="6" rx="1"></rect>
                        <path d="M33.9008808,18.1892921 C33.488598,18.4993071 33.4079586,19.0821354 33.7202941,19.4924827 C36.9220167,23.6838864 36.9220167,29.3160147 33.7202941,33.5074184 C33.4068229,33.9166383 33.4874622,34.5005939 33.899745,34.810609 C34.0689741,34.937997 34.267733,35 34.4642204,35 C34.7481618,35 35.02756,34.8737393 35.2126898,34.6313639 C38.9289141,29.768073 38.9289141,23.231828 35.2138256,18.3685371 C34.9014901,17.9593172 34.3142994,17.8781497 33.9008808,18.1892921 Z" id="Path" fill="#FFC50E"></path>
                        <path d="M29.5781578,22.3412393 C31.5248596,24.8675803 31.5237239,28.1323208 29.577022,30.6575344 C29.262415,31.0644996 29.3407828,31.6484553 29.7507941,31.960725 C29.9211589,32.0903677 30.1221894,32.153498 30.3198126,32.153498 C30.6014824,32.153498 30.8808807,32.0272373 31.0648747,31.7871166 C33.5044987,28.6260902 33.5056344,24.3760655 31.0671462,21.2116571 C30.7525392,20.8035646 30.1642127,20.725779 29.7530657,21.039176 C29.3430544,21.3503184 29.2635508,21.9331467 29.5781578,22.3412393 Z" id="Path" fill="#FFC50E"></path>
                    </g>
                    <g id="编组-24" transform="translate(18.000000, 20.000000)"></g>
                    <g>
                        <circle id="椭圆形" fill="#FFD961" cx="10" cy="10" r="10"></circle>
                        <text id="3" font-family="Averta-Bold, Averta" font-size="12" font-weight="bold" line-spacing="12" letter-spacing="-0.0905778036" fill="#2A2C38">
                            <tspan x="7.28454671" y="11">3</tspan>
                        </text>
                    </g>
                </g>
            </g>
        </g>
    </g>
</svg>