<?xml version="1.0" encoding="UTF-8"?>
<svg width="53px" height="54px" viewBox="0 0 53 54" version="1.1" xmlns="http://www.w3.org/2000/svg" xmlns:xlink="http://www.w3.org/1999/xlink">
    <!-- Generator: Sketch 59 (86127) - https://sketch.com -->
    <title>编组 17</title>
    <desc>Created with Sketch.</desc>
    <g id="Beex-网站" stroke="none" stroke-width="1" fill="none" fill-rule="evenodd">
        <g id="Beex官网" transform="translate(-1302.000000, -3807.000000)">
            <g id="编组-16" transform="translate(1280.000000, 3789.000000)">
                <g id="编组-17" transform="translate(22.000000, 18.000000)">
                    <path d="M32,3.73205081 L48.5166605,13.2679492 C50.373067,14.339746 51.5166605,16.3205081 51.5166605,18.4641016 L51.5166605,37.5358984 C51.5166605,39.6794919 50.373067,41.660254 48.5166605,42.7320508 L32,52.2679492 C30.1435935,53.339746 27.8564065,53.339746 26,52.2679492 L9.4833395,42.7320508 C7.62693304,41.660254 6.4833395,39.6794919 6.4833395,37.5358984 L6.4833395,18.4641016 C6.4833395,16.3205081 7.62693304,14.339746 9.4833395,13.2679492 L26,3.73205081 C27.8564065,2.66025404 30.1435935,2.66025404 32,3.73205081 Z" id="多边形" stroke="#FFC50E"></path>
                    <g id="编组-23" transform="translate(16.000000, 18.000000)">
                        <rect id="矩形" fill="#FFC50E" x="1" y="0" width="17" height="4" rx="1"></rect>
                        <rect id="矩形" fill="#FFC50E" x="2" y="5" width="17" height="4" rx="1"></rect>
                        <rect id="矩形" fill="#FFC50E" x="0" y="10" width="17" height="4" rx="1"></rect>
                        <rect id="矩形" fill="#FFC50E" x="2" y="15" width="17" height="4" rx="1"></rect>
                        <g id="编组-22" transform="translate(12.000000, 7.000000)">
                            <circle id="椭圆形" stroke="#FFC50E" stroke-width="1.5" fill="#222222" cx="8" cy="8" r="8"></circle>
                            <path d="M10.9585619,9.84384478 L10.9468431,9.85556353 C10.9468431,10.4942354 10.7476244,11.0215792 10.3491869,11.4375948 C9.9507494,11.8536104 9.40582752,12.1114229 8.71442127,12.2110323 L8.71442127,13.5469698 L7.46051502,13.5469698 L7.46051502,12.2051729 C6.5288744,12.0704073 5.72614002,11.6661104 5.0523119,10.9922823 L6.02496815,9.80868853 C6.34723377,10.1192354 6.69879627,10.3536104 7.07965565,10.5118135 C7.46051502,10.6700167 7.82379627,10.7461885 8.1694994,10.7461885 C8.46832752,10.7461885 8.7085619,10.675876 8.89020252,10.5411104 C9.07184315,10.4063448 9.16559315,10.2247042 9.16559315,9.99618853 C9.16559315,9.9082979 9.1538744,9.82626665 9.1304369,9.75595415 C9.1069994,9.68564165 9.07184315,9.61532915 9.02496815,9.55087603 C8.97809315,9.4864229 8.9194994,9.42782915 8.8491869,9.37509478 C8.7788744,9.3223604 8.69098377,9.26962603 8.58551502,9.21689165 C8.48004627,9.16415728 8.36871815,9.11728228 8.24567127,9.07040728 C8.16364002,9.03915728 8.0711921,9.00790728 7.96832752,8.97492117 L7.40192127,8.80087603 C7.28473377,8.76571978 7.15582752,8.71884478 7.01520252,8.6661104 C6.87457752,8.61337603 6.75153065,8.56064165 6.6460619,8.50790728 C6.54059315,8.4551729 6.42926502,8.39657915 6.31207752,8.33212603 C6.19489002,8.2676729 6.09528065,8.20321978 6.00739002,8.13290728 C5.9194994,8.06259478 5.83160877,7.9864229 5.74371815,7.90439165 C5.65582752,7.8223604 5.58551502,7.7286104 5.52692127,7.62900103 C5.46832752,7.52939165 5.41559315,7.4239229 5.36871815,7.31259478 C5.32184315,7.20126665 5.2866869,7.07821978 5.2632494,6.94345415 C5.2398119,6.80868853 5.22809315,6.66806353 5.22809315,6.52157915 C5.22809315,5.89462603 5.4273119,5.37314165 5.81989002,4.95126665 C6.21246815,4.52939165 6.75739002,4.27743853 7.45465565,4.19540728 L7.45465565,2.77743853 L8.7085619,2.77743853 L8.7085619,4.2598604 C9.07770252,4.33603228 9.44684315,4.45907915 9.8101244,4.62900103 C10.1734056,4.7989229 10.4898119,4.99228228 10.7593431,5.20907915 L9.81598377,6.3926729 C9.18317127,5.9473604 8.5679369,5.72470415 7.96442127,5.72470415 C7.65973377,5.72470415 7.42535877,5.7832979 7.2554369,5.9004854 C7.08551502,6.0176729 7.00348377,6.1817354 7.00348377,6.39853228 C7.00348377,6.60946978 7.10309315,6.78525103 7.29645252,6.92001665 C7.46218913,7.03553005 7.72263237,7.15534829 8.07778224,7.27947137 L8.2632494,7.34189165 C8.46832752,7.40634478 8.64410877,7.45907915 8.78473377,7.50595415 L9.08768516,7.60925277 C9.1415046,7.62834999 9.19684315,7.64853228 9.25348377,7.67001665 C9.42340565,7.73446978 9.56403065,7.79306353 9.68121815,7.85165728 C9.79840565,7.91025103 9.92145252,7.98056353 10.0503588,8.06259478 C10.179265,8.14462603 10.2847338,8.22665728 10.366765,8.30868853 C10.4487963,8.39071978 10.5308275,8.48446978 10.6128588,8.5957979 C10.69489,8.70712603 10.7593431,8.82431353 10.8062181,8.9473604 C10.8530931,9.07040728 10.8882494,9.2051729 10.9175463,9.35751665 C10.9468431,9.5098604 10.9585619,9.6739229 10.9585619,9.84384478 Z" id="$" fill="#FFC50E" fill-rule="nonzero"></path>
                        </g>
                    </g>
                    <g>
                        <circle id="椭圆形" fill="#FFD961" cx="10" cy="10" r="10"></circle>
                        <text id="2" font-family="Averta-Bold, Averta" font-size="12" font-weight="bold" line-spacing="12" letter-spacing="-0.0905778036" fill="#2A2C38">
                            <tspan x="7.3577889" y="11">2</tspan>
                        </text>
                    </g>
                </g>
            </g>
        </g>
    </g>
</svg>