<?xml version="1.0" encoding="UTF-8"?>
<svg width="63px" height="64px" viewBox="0 0 63 64" version="1.1" xmlns="http://www.w3.org/2000/svg" xmlns:xlink="http://www.w3.org/1999/xlink">
    <!-- Generator: Sketch 59 (86127) - https://sketch.com -->
    <title>编组</title>
    <desc>Created with Sketch.</desc>
    <g id="Beex-网站" stroke="none" stroke-width="1" fill="none" fill-rule="evenodd">
        <g id="Beex官网" transform="translate(-387.000000, -7121.000000)">
            <g id="编组-16" transform="translate(360.000000, 7094.000000)">
                <g id="编组" transform="translate(28.000000, 28.000000)">
                    <path d="M14.0751,19.5253 L14.0751,14.9233 C14.0751,14.8623 14.0711,14.8013 14.0661,14.7413 L18.1081,12.1713 C19.0541,11.5693 19.3331,10.3143 18.7321,9.3683 C18.1301,8.4213 16.8751,8.1423 15.9291,8.7453 L12.0241,11.2283 L8.1691,8.7503 C7.2261,8.1433 5.9701,8.4173 5.3641,9.3593 C4.7581,10.3023 5.0311,11.5583 5.9731,12.1653 L10.0231,14.7683 C10.0191,14.8203 10.0151,14.8713 10.0151,14.9233 L10.0151,19.5253 C10.0151,20.6463 10.9241,21.5553 12.0451,21.5553 C13.1661,21.5553 14.0751,20.6463 14.0751,19.5253" id="Fill-1" fill="#FEFEFE"></path>
                    <path d="M14.0751,19.5253 L14.0751,14.9233 C14.0751,14.8623 14.0711,14.8013 14.0661,14.7413 L18.1081,12.1713 C19.0541,11.5693 19.3331,10.3143 18.7321,9.3683 C18.1301,8.4213 16.8751,8.1423 15.9291,8.7453 L12.0241,11.2283 L8.1691,8.7503 C7.2261,8.1433 5.9701,8.4173 5.3641,9.3593 C4.7581,10.3023 5.0311,11.5583 5.9731,12.1653 L10.0231,14.7683 C10.0191,14.8203 10.0151,14.8713 10.0151,14.9233 L10.0151,19.5253 C10.0151,20.6463 10.9241,21.5553 12.0451,21.5553 C13.1661,21.5553 14.0751,20.6463 14.0751,19.5253 Z" id="Stroke-3" stroke="#2D2D2D" stroke-width="2"></path>
                    <path d="M8.1693,43.1932 C7.2263,42.5872 5.9703,42.8602 5.3643,43.8032 C4.7573,44.7462 5.0303,46.0022 5.9733,46.6082 L10.0233,49.2122 C10.0193,49.2632 10.0153,49.3142 10.0153,49.3672 L10.0153,53.9682 C10.0153,55.0892 10.9243,55.9992 12.0453,55.9992 C13.1663,55.9992 14.0753,55.0892 14.0753,53.9682 L14.0753,49.3672 C14.0753,49.3052 14.0713,49.2452 14.0653,49.1842 L18.1083,46.6142 C19.0543,46.0122 19.3333,44.7572 18.7323,43.8112 C18.1303,42.8652 16.8753,42.5862 15.9293,43.1882 L12.0243,45.6722 L8.1693,43.1932 Z" id="Fill-5" stroke="#2D2D2D" fill="#FEFEFE"></path>
                    <path d="M8.1693,43.1932 C7.2263,42.5872 5.9703,42.8602 5.3643,43.8032 C4.7573,44.7462 5.0303,46.0022 5.9733,46.6082 L10.0233,49.2122 C10.0193,49.2632 10.0153,49.3142 10.0153,49.3672 L10.0153,53.9682 C10.0153,55.0892 10.9243,55.9992 12.0453,55.9992 C13.1663,55.9992 14.0753,55.0892 14.0753,53.9682 L14.0753,49.3672 C14.0753,49.3052 14.0713,49.2452 14.0653,49.1842 L18.1083,46.6142 C19.0543,46.0122 19.3333,44.7572 18.7323,43.8112 C18.1303,42.8652 16.8753,42.5862 15.9293,43.1882 L12.0243,45.6722 L8.1693,43.1932 Z" id="Stroke-7" stroke="#2D2D2D" stroke-width="2"></path>
                    <path d="M56.9408,52.3739 L49.3308,56.7679 L41.7208,52.3739 L41.7208,43.5859 L49.3308,39.1919 L56.9408,43.5859 L56.9408,52.3739 Z M23.7148,45.9499 L23.7148,42.4139 C23.7148,41.6889 23.3288,41.0189 22.7008,40.6559 L14.1088,35.6959 L14.1088,25.8199 L22.7008,20.8599 C23.3288,20.4979 23.7148,19.8279 23.7148,19.1029 L23.7148,15.6349 L37.6608,15.6349 L37.6608,19.1029 C37.6608,19.8279 38.0468,20.4979 38.6758,20.8599 L47.2668,25.8199 L47.2668,35.6959 L38.6758,40.6559 C38.0468,41.0189 37.6608,41.6889 37.6608,42.4139 L37.6608,45.9499 L23.7148,45.9499 Z M19.6548,52.3739 L12.0448,56.7679 L4.4348,52.3739 L4.4348,43.5859 L12.0448,39.1919 L19.6548,43.5859 L19.6548,52.3739 Z M4.4348,9.1429 L12.0448,4.7489 L19.6548,9.1429 L19.6548,17.9309 L12.0448,22.3239 L4.4348,17.9309 L4.4348,9.1429 Z M41.7208,9.1429 L49.3308,4.7489 L56.9408,9.1429 L56.9408,17.9309 L49.3308,22.3239 L41.7208,17.9309 L41.7208,9.1429 Z M59.9858,20.8599 C60.6138,20.4979 61.0008,19.8279 61.0008,19.1029 L61.0008,7.9709 C61.0008,7.2459 60.6138,6.5749 59.9858,6.2129 L50.3458,0.6469 C49.7178,0.2839 48.9438,0.2839 48.3158,0.6469 L38.6758,6.2129 C38.0468,6.5749 37.6608,7.2459 37.6608,7.9709 L37.6608,11.5739 L23.7148,11.5739 L23.7148,7.9709 C23.7148,7.2459 23.3288,6.5749 22.7008,6.2129 L13.0608,0.6469 C12.4318,0.2839 11.6578,0.2839 11.0298,0.6469 L1.3898,6.2129 C0.7618,6.5749 0.3748,7.2459 0.3748,7.9709 L0.3748,19.1029 C0.3748,19.8279 0.7618,20.4979 1.3898,20.8599 L10.0488,25.8589 L10.0488,35.6569 L1.3898,40.6559 C0.7618,41.0189 0.3748,41.6889 0.3748,42.4139 L0.3748,53.5459 C0.3748,54.2709 0.7618,54.9409 1.3898,55.3039 L11.0298,60.8689 C11.6578,61.2319 12.4318,61.2319 13.0608,60.8689 L22.7008,55.3039 C23.3288,54.9409 23.7148,54.2709 23.7148,53.5459 L23.7148,50.0099 L37.6608,50.0099 L37.6608,53.5459 C37.6608,54.2709 38.0468,54.9409 38.6758,55.3039 L48.3158,60.8689 C48.9438,61.2319 49.7178,61.2319 50.3458,60.8689 L59.9858,55.3039 C60.6138,54.9409 61.0008,54.2709 61.0008,53.5459 L61.0008,42.4139 C61.0008,41.6889 60.6138,41.0189 59.9858,40.6559 L51.3268,35.6569 L51.3268,25.8589 L59.9858,20.8599 Z" id="Fill-9" fill="#FEFEFE"></path>
                    <path d="M56.9408,52.3739 L49.3308,56.7679 L41.7208,52.3739 L41.7208,43.5859 L49.3308,39.1919 L56.9408,43.5859 L56.9408,52.3739 Z M23.7148,45.9499 L23.7148,42.4139 C23.7148,41.6889 23.3288,41.0189 22.7008,40.6559 L14.1088,35.6959 L14.1088,25.8199 L22.7008,20.8599 C23.3288,20.4979 23.7148,19.8279 23.7148,19.1029 L23.7148,15.6349 L37.6608,15.6349 L37.6608,19.1029 C37.6608,19.8279 38.0468,20.4979 38.6758,20.8599 L47.2668,25.8199 L47.2668,35.6959 L38.6758,40.6559 C38.0468,41.0189 37.6608,41.6889 37.6608,42.4139 L37.6608,45.9499 L23.7148,45.9499 Z M19.6548,52.3739 L12.0448,56.7679 L4.4348,52.3739 L4.4348,43.5859 L12.0448,39.1919 L19.6548,43.5859 L19.6548,52.3739 Z M4.4348,9.1429 L12.0448,4.7489 L19.6548,9.1429 L19.6548,17.9309 L12.0448,22.3239 L4.4348,17.9309 L4.4348,9.1429 Z M41.7208,9.1429 L49.3308,4.7489 L56.9408,9.1429 L56.9408,17.9309 L49.3308,22.3239 L41.7208,17.9309 L41.7208,9.1429 Z M59.9858,20.8599 C60.6138,20.4979 61.0008,19.8279 61.0008,19.1029 L61.0008,7.9709 C61.0008,7.2459 60.6138,6.5749 59.9858,6.2129 L50.3458,0.6469 C49.7178,0.2839 48.9438,0.2839 48.3158,0.6469 L38.6758,6.2129 C38.0468,6.5749 37.6608,7.2459 37.6608,7.9709 L37.6608,11.5739 L23.7148,11.5739 L23.7148,7.9709 C23.7148,7.2459 23.3288,6.5749 22.7008,6.2129 L13.0608,0.6469 C12.4318,0.2839 11.6578,0.2839 11.0298,0.6469 L1.3898,6.2129 C0.7618,6.5749 0.3748,7.2459 0.3748,7.9709 L0.3748,19.1029 C0.3748,19.8279 0.7618,20.4979 1.3898,20.8599 L10.0488,25.8589 L10.0488,35.6569 L1.3898,40.6559 C0.7618,41.0189 0.3748,41.6889 0.3748,42.4139 L0.3748,53.5459 C0.3748,54.2709 0.7618,54.9409 1.3898,55.3039 L11.0298,60.8689 C11.6578,61.2319 12.4318,61.2319 13.0608,60.8689 L22.7008,55.3039 C23.3288,54.9409 23.7148,54.2709 23.7148,53.5459 L23.7148,50.0099 L37.6608,50.0099 L37.6608,53.5459 C37.6608,54.2709 38.0468,54.9409 38.6758,55.3039 L48.3158,60.8689 C48.9438,61.2319 49.7178,61.2319 50.3458,60.8689 L59.9858,55.3039 C60.6138,54.9409 61.0008,54.2709 61.0008,53.5459 L61.0008,42.4139 C61.0008,41.6889 60.6138,41.0189 59.9858,40.6559 L51.3268,35.6569 L51.3268,25.8589 L59.9858,20.8599 Z" id="Stroke-11" stroke="#2D2D2D" stroke-width="2"></path>
                    <path d="M51.3607,19.5253 L51.3607,14.9233 C51.3607,14.8623 51.3567,14.8013 51.3517,14.7413 L55.3937,12.1713 C56.3397,11.5693 56.6187,10.3143 56.0177,9.3683 C55.4157,8.4213 54.1607,8.1423 53.2147,8.7453 L49.3097,11.2283 L45.4547,8.7503 C44.5117,8.1433 43.2557,8.4173 42.6497,9.3593 C42.0437,10.3023 42.3157,11.5583 43.2587,12.1653 L47.3087,14.7683 C47.3047,14.8203 47.3007,14.8713 47.3007,14.9233 L47.3007,19.5253 C47.3007,20.6463 48.2097,21.5553 49.3307,21.5553 C50.4517,21.5553 51.3607,20.6463 51.3607,19.5253" id="Fill-13" fill="#FEFEFE"></path>
                    <path d="M51.3607,19.5253 L51.3607,14.9233 C51.3607,14.8623 51.3567,14.8013 51.3517,14.7413 L55.3937,12.1713 C56.3397,11.5693 56.6187,10.3143 56.0177,9.3683 C55.4157,8.4213 54.1607,8.1423 53.2147,8.7453 L49.3097,11.2283 L45.4547,8.7503 C44.5117,8.1433 43.2557,8.4173 42.6497,9.3593 C42.0437,10.3023 42.3157,11.5583 43.2587,12.1653 L47.3087,14.7683 C47.3047,14.8203 47.3007,14.8713 47.3007,14.9233 L47.3007,19.5253 C47.3007,20.6463 48.2097,21.5553 49.3307,21.5553 C50.4517,21.5553 51.3607,20.6463 51.3607,19.5253 Z" id="Stroke-15" stroke="#2D2D2D" stroke-width="2"></path>
                    <path d="M45.455,43.1932 C44.512,42.5872 43.256,42.8602 42.649,43.8032 C42.043,44.7462 42.316,46.0022 43.259,46.6082 L47.309,49.2122 C47.305,49.2632 47.301,49.3142 47.301,49.3672 L47.301,53.9682 C47.301,55.0892 48.209,55.9992 49.33,55.9992 C50.452,55.9992 51.361,55.0892 51.361,53.9682 L51.361,49.3672 C51.361,49.3052 51.357,49.2452 51.351,49.1842 L55.394,46.6142 C56.34,46.0122 56.619,44.7572 56.018,43.8112 C55.415,42.8652 54.161,42.5862 53.215,43.1882 L49.309,45.6722 L45.455,43.1932 Z" id="Fill-17" stroke="#2D2D2D" fill="#FEFEFE"></path>
                    <path d="M45.455,43.1932 C44.512,42.5872 43.256,42.8602 42.649,43.8032 C42.043,44.7462 42.316,46.0022 43.259,46.6082 L47.309,49.2122 C47.305,49.2632 47.301,49.3142 47.301,49.3672 L47.301,53.9682 C47.301,55.0892 48.209,55.9992 49.33,55.9992 C50.452,55.9992 51.361,55.0892 51.361,53.9682 L51.361,49.3672 C51.361,49.3052 51.357,49.2452 51.351,49.1842 L55.394,46.6142 C56.34,46.0122 56.619,44.7572 56.018,43.8112 C55.415,42.8652 54.161,42.5862 53.215,43.1882 L49.309,45.6722 L45.455,43.1932 Z" id="Stroke-19" stroke="#2D2D2D" stroke-width="2"></path>
                    <path d="M39.9828,37.0106 L43.9598,31.9406 C44.5368,31.2046 44.5368,30.1696 43.9598,29.4346 L39.9828,24.3646 C39.2908,23.4816 38.0148,23.3266 37.1328,24.0196 C36.2508,24.7106 36.0958,25.9876 36.7878,26.8686 L39.7828,30.6876 L36.7878,34.5046 C36.0958,35.3876 36.2508,36.6626 37.1328,37.3556 C38.0148,38.0466 39.2908,37.8926 39.9828,37.0106" id="Fill-21" stroke="#2D2D2D" fill="#FEFEFE"></path>
                    <path d="M39.9828,37.0106 L43.9598,31.9406 C44.5368,31.2046 44.5368,30.1696 43.9598,29.4346 L39.9828,24.3646 C39.2908,23.4816 38.0148,23.3266 37.1328,24.0196 C36.2508,24.7106 36.0958,25.9876 36.7878,26.8686 L39.7828,30.6876 L36.7878,34.5046 C36.0958,35.3876 36.2508,36.6626 37.1328,37.3556 C38.0148,38.0466 39.2908,37.8926 39.9828,37.0106 Z" id="Stroke-23" stroke="#2D2D2D" stroke-width="2"></path>
                    <path d="M24.5824,34.5048 L21.5884,30.6878 L24.5824,26.8698 C25.2744,25.9868 25.1204,24.7108 24.2384,24.0198 C23.3554,23.3268 22.0804,23.4818 21.3884,24.3638 L17.4114,29.4348 C16.8334,30.1698 16.8334,31.2048 17.4114,31.9408 L21.3884,37.0108 C22.0804,37.8928 23.3554,38.0468 24.2384,37.3558 C25.1204,36.6628 25.2744,35.3878 24.5824,34.5048 Z" id="Fill-25" stroke="#2D2D2D" fill="#FEFEFE"></path>
                    <path d="M24.5824,34.5048 L21.5884,30.6878 L24.5824,26.8698 C25.2744,25.9868 25.1204,24.7108 24.2384,24.0198 C23.3554,23.3268 22.0804,23.4818 21.3884,24.3638 L17.4114,29.4348 C16.8334,30.1698 16.8334,31.2048 17.4114,31.9408 L21.3884,37.0108 C22.0804,37.8928 23.3554,38.0468 24.2384,37.3558 C25.1204,36.6628 25.2744,35.3878 24.5824,34.5048 L24.5824,34.5048 Z" id="Stroke-27" stroke="#2D2D2D" stroke-width="2"></path>
                    <path d="M33.4984,22.87 C32.4434,22.489 31.2804,23.036 30.8994,24.091 L26.6264,35.935 C26.2464,36.99 26.7924,38.154 27.8474,38.534 C28.9014,38.915 30.0654,38.368 30.4454,37.313 L34.7194,25.469 C35.0994,24.414 34.5534,23.251 33.4984,22.87" id="Fill-29" stroke="#2D2D2D" fill="#FEFEFE"></path>
                    <path d="M33.4984,22.87 C32.4434,22.489 31.2804,23.036 30.8994,24.091 L26.6264,35.935 C26.2464,36.99 26.7924,38.154 27.8474,38.534 C28.9014,38.915 30.0654,38.368 30.4454,37.313 L34.7194,25.469 C35.0994,24.414 34.5534,23.251 33.4984,22.87 Z" id="Stroke-31" stroke="#2D2D2D" stroke-width="2"></path>
                </g>
            </g>
        </g>
    </g>
</svg>