<?xml version="1.0" encoding="UTF-8"?>
<svg width="71px" height="67px" viewBox="0 0 71 67" version="1.1" xmlns="http://www.w3.org/2000/svg" xmlns:xlink="http://www.w3.org/1999/xlink">
    <!-- Generator: Sketch 59 (86127) - https://sketch.com -->
    <title>Stroke 3</title>
    <desc>Created with Sketch.</desc>
    <g id="Beex-网站" stroke="none" stroke-width="1" fill="none" fill-rule="evenodd">
        <g id="Beex官网" transform="translate(-792.000000, -7120.000000)" stroke="#fff" stroke-width="2">
            <g id="编组-16" transform="translate(764.000000, 7094.000000)">
                <g id="编组" transform="translate(29.000000, 27.000000)">
                    <path d="M33.9158,4.6083 C32.7118,4.6083 31.7698,4.9243 31.0888,5.5633 C30.4888,6.1973 30.1888,7.0463 30.1888,8.1033 C30.1888,9.0203 30.5268,9.7953 31.2078,10.4293 C31.9578,11.0683 32.7898,11.4203 33.6928,11.4923 C34.6818,11.5133 35.6448,11.1733 36.4008,10.5373 C37.1118,9.9153 37.5568,9.0443 37.6438,8.1033 C37.6438,7.0463 37.3438,6.1973 36.7438,5.5633 C36.1348,4.9243 35.1968,4.6083 33.9158,4.6083 Z M39.9008,2.7063 C41.4818,4.1833 42.2698,6.0213 42.2698,8.2073 C42.2698,10.3273 41.4818,12.1273 39.9008,13.6093 C38.3498,15.0803 36.2808,15.8793 34.1428,15.8333 C31.9578,15.8333 29.9998,15.0913 28.2698,13.6093 C26.5388,12.1273 25.6728,10.3273 25.6728,8.2113 C25.6728,6.0943 26.5348,4.2563 28.2648,2.7063 C29.9958,1.1463 31.9538,0.3753 34.1388,0.3753 C36.4008,0.3753 38.3198,1.1503 39.9008,2.7063 Z M23.3038,12.4433 C23.3038,13.0083 23.1158,13.3993 22.7388,13.6093 C19.3188,15.3463 16.3138,17.8013 13.9308,20.8063 C11.5398,23.7293 9.8748,27.1763 9.0718,30.8663 C8.9948,31.2163 8.6568,31.5003 8.0568,31.7133 C7.5378,31.8563 6.9898,31.8563 6.4718,31.7133 C6.0498,31.6583 5.6568,31.4713 5.3448,31.1823 C4.9678,30.7583 4.8178,30.3693 4.8908,30.0173 L4.7788,29.7003 C5.6888,25.5883 7.5448,21.7463 10.1988,18.4753 C12.9308,15.0753 16.3598,12.2973 20.2538,10.3323 C20.6308,10.1173 21.1188,10.0833 21.7238,10.2243 C22.1798,10.3813 22.5748,10.6783 22.8538,11.0733 C23.1538,11.5040116 23.3038,11.9606783 23.3038,12.4433 Z M25.5618,24.3023 L29.5168,24.3023 C32.2238,28.9593 33.9548,32.0313 34.7088,33.5133 L34.8198,33.5133 C35.1238,32.8063 35.8008,31.5003 36.8548,29.5933 L40.0128,24.3023 L43.7398,24.3023 L37.4118,34.2543 L43.5088,34.2543 L43.5088,36.8973 L36.3968,36.8973 L36.3968,40.7113 L43.5088,40.7113 L43.5088,43.3583 L36.3968,43.3583 L36.3968,48.8633 L32.7848,48.8633 L32.7848,43.3583 L25.5578,43.3583 L25.5578,40.7113 L32.7848,40.7113 L32.7848,36.8973 L25.5578,36.8973 L25.5578,34.2503 L31.6588,34.2503 L25.5578,24.2973 L25.5618,24.3023 Z M8.8498,35.3123 C11.1068,35.3123 13.0258,36.0883 14.6068,37.6383 C16.1918,39.1213 16.9808,40.9213 16.9808,43.0373 C16.9808,45.2263 16.1878,47.0253 14.6068,48.4393 C13.0258,49.9213 11.1068,50.6633 8.8498,50.6633 C6.5918,50.6633 4.6338,49.9213 2.9798,48.4393 C1.2358,46.9573 0.3748,45.1583 0.3748,43.0413 C0.3748,40.9213 1.2408,39.1213 2.9718,37.6433 C4.5448,36.1233 6.6568,35.2853 8.8448,35.3123 L8.8498,35.3123 Z M4.8948,43.0413 C4.8948,43.9583 5.2378,44.7673 5.9148,45.4743 C6.6338,46.0963 7.5558,46.4353 8.5068,46.4253 C9.4958,46.4503 10.4608,46.1123 11.2188,45.4743 C11.8688,44.8323 12.2338,43.9563 12.2338,43.0413 C12.2338,41.9103 11.9728,41.0623 11.4458,40.5013 C10.8408,39.7943 9.9028,39.4383 8.6178,39.4383 C7.4178,39.4383 6.4368,39.7943 5.6868,40.5013 C5.1608,41.1343 4.8948,41.9833 4.8948,43.0413 Z M15.1678,52.5693 C15.6948,52.6423 16.0678,52.7843 16.2998,52.9943 C18.6028,55.3933 21.3668,57.3013 24.4268,58.6063 C27.5158,59.8743 30.8268,60.5073 34.3658,60.5073 C37.8458,60.5463 41.2988,59.8983 44.5278,58.6013 C47.7208,57.3113 50.6068,55.3643 52.9978,52.8863 C53.3118,52.5013 53.7518,52.2383 54.2398,52.1453 C54.8938,51.9973 55.5768,52.1963 56.0478,52.6713 C56.5018,53.1003 56.6908,53.5883 56.6138,54.1543 C56.6338,54.6733 56.4268,55.1743 56.0478,55.5303 C53.2768,58.4173 49.9298,60.6893 46.2248,62.2003 C42.4818,63.8223 38.4448,64.6523 34.3658,64.6373 C26.4908,64.6733 18.9128,61.6343 13.2448,56.1683 C12.7948,55.6753 12.6448,55.1483 12.7948,54.5833 C12.8958,54.2433 13.0488,53.9213 13.2488,53.6283 C13.3998,53.2943 13.6328,53.0043 13.9258,52.7843 C14.2258,52.5693 14.6418,52.4973 15.1678,52.5693 Z M48.4868,10.3273 C52.3688,12.3563 55.7898,15.1683 58.5328,18.5833 C61.1958,22.0083 63.0488,25.9923 63.9528,30.2363 C64.0248,30.6563 63.8748,31.0453 63.5028,31.3973 C63.1648,31.7323 62.7298,31.9563 62.2598,32.0353 C61.7248,32.1753 61.1548,32.0983 60.6748,31.8213 C60.2798,31.6633 59.9578,31.3613 59.7758,30.9773 C59.0258,27.2383 57.3578,23.7443 54.9218,20.8103 C52.4278,17.8513 49.3508,15.4373 45.8818,13.7203 C45.4358,13.4413 45.1448,12.9713 45.0938,12.4483 C45.0938,11.8823 45.2088,11.3893 45.4368,10.9653 C45.5818,10.6143 46.0358,10.3663 46.7898,10.2243 C47.3138,10.0783 47.8718,10.1163 48.3708,10.3323 L48.4818,10.3323 L48.4868,10.3273 Z M66.5488,48.4393 C64.9678,49.9213 63.0488,50.6633 60.7908,50.6633 C58.5328,50.6633 56.5368,49.9213 54.8058,48.4393 C53.0748,46.9573 52.2098,45.1583 52.2098,43.0413 C52.2098,40.9213 53.0748,39.1213 54.8058,37.6383 C56.5368,36.0883 58.5328,35.3083 60.7908,35.3083 C62.9758,35.3083 64.8908,36.0883 66.5488,37.6383 C68.1338,39.1213 68.9218,40.9213 68.9218,43.0373 C68.9218,45.2263 68.1298,47.0253 66.5488,48.4393 Z M64.1798,43.0413 C64.1798,41.9103 63.9178,41.0623 63.3868,40.5013 C62.7098,39.7943 61.7678,39.4383 60.5598,39.4383 C59.2868,39.4383 58.3058,39.7943 57.6248,40.5013 C57.0248,41.1343 56.7248,41.9833 56.7248,43.0413 C56.7248,43.9583 57.1028,44.7673 57.8558,45.4743 C58.5328,46.1093 59.3978,46.4253 60.4528,46.4253 C61.4088,46.4633 62.3418,46.1213 63.0488,45.4743 C63.7588,44.8653 64.1718,43.9773 64.1798,43.0413 Z" id="Stroke-3"></path>
                </g>
            </g>
        </g>
    </g>
</svg>