<?xml version="1.0" encoding="UTF-8"?>
<svg width="54px" height="54px" viewBox="0 0 54 54" version="1.1" xmlns="http://www.w3.org/2000/svg" xmlns:xlink="http://www.w3.org/1999/xlink">
    <!-- Generator: Sketch 59 (86127) - https://sketch.com -->
    <title>编组 17</title>
    <desc>Created with Sketch.</desc>
    <g id="Beex-网站" stroke="none" stroke-width="1" fill="none" fill-rule="evenodd">
        <g id="Beex官网" transform="translate(-1301.000000, -4213.000000)">
            <g id="编组-16" transform="translate(1280.000000, 4195.000000)">
                <g id="编组-17" transform="translate(21.000000, 18.000000)">
                    <path d="M33,3.73205081 L49.5166605,13.2679492 C51.373067,14.339746 52.5166605,16.3205081 52.5166605,18.4641016 L52.5166605,37.5358984 C52.5166605,39.6794919 51.373067,41.660254 49.5166605,42.7320508 L33,52.2679492 C31.1435935,53.339746 28.8564065,53.339746 27,52.2679492 L10.4833395,42.7320508 C8.62693304,41.660254 7.4833395,39.6794919 7.4833395,37.5358984 L7.4833395,18.4641016 C7.4833395,16.3205081 8.62693304,14.339746 10.4833395,13.2679492 L27,3.73205081 C28.8564065,2.66025404 31.1435935,2.66025404 33,3.73205081 Z" id="多边形" stroke="#FFC50E"></path>
                    <g id="雪花，雪" transform="translate(18.000000, 17.000000)" fill="#FFC50E" fill-rule="nonzero">
                        <path d="M22.617313,8.47049543 C22.9101359,8.18214664 23.3808504,8.18438544 23.6709172,8.47550656 C23.960984,8.76662769 23.961515,9.23734723 23.6721057,9.52912202 L23.6721057,9.52912202 L21.9617217,11.2462153 L23.1444697,11.2462153 C23.3427468,11.2465963 23.5327516,11.325727 23.672685,11.4661997 C23.8126184,11.6066724 23.8910178,11.7969801 23.8907505,11.9952572 C23.8909923,12.1934823 23.8125695,12.3837259 23.6726278,12.5241169 C23.5326861,12.664508 23.3426949,12.7435404 23.1444697,12.7438197 L23.1444697,12.7438197 L21.9617217,12.7438197 L23.6721057,14.4609131 C23.963491,14.7538231 23.963491,15.2271089 23.6721057,15.5200189 C23.5325544,15.6605 23.3427233,15.7395001 23.1447094,15.7395001 C22.9466954,15.7395001 22.7568643,15.6605 22.617313,15.5200189 L22.617313,15.5200189 L19.8521362,12.7438197 L18.2318481,12.7438197 L19.1965449,13.7123505 C19.4879272,14.0050747 19.4879272,14.4782528 19.1965449,14.770977 C19.0569936,14.9114582 18.8671625,14.9904583 18.6691485,14.9904583 C18.4711346,14.9904583 18.2813035,14.9114582 18.1417522,14.770977 L18.1417522,14.770977 L16.1222626,12.7438197 L15.6099621,12.7438197 C15.5139123,13.2124765 15.3285955,13.658278 15.0641152,14.0569193 L15.0641152,14.0569193 L18.2318481,17.2371122 L20.906929,17.2371122 C21.3204293,17.2371853 21.6555987,17.5724141 21.6555987,17.9859144 C21.6555987,18.3994147 21.3204293,18.7346434 20.906929,18.7347166 L20.906929,18.7347166 L19.7237017,18.7347166 L20.6883985,19.7032473 C20.9797808,19.9959716 20.9797808,20.4691496 20.6883985,20.7618739 C20.5488472,20.902355 20.3590161,20.9813551 20.1610021,20.9813551 C19.9629882,20.9813551 19.7731571,20.902355 19.6336058,20.7618739 L19.6336058,20.7618739 L18.6689089,19.7938224 L18.6689089,20.9813628 C18.6689089,21.3933268 18.3349461,21.7272896 17.9229821,21.7272896 C17.5110181,21.7272896 17.1770553,21.3933268 17.1770553,20.9813628 L17.1770553,20.9813628 L17.1770553,18.296218 L14.0093225,15.1155459 C13.6085214,15.3833291 13.1591782,15.570067 12.6866383,15.6652266 C12.6932195,15.6896608 12.6983403,15.714465 12.7019738,15.7395078 L12.7019738,15.7395078 L12.7019738,16.1780063 L14.7209841,18.2051637 C15.0123693,18.4980737 15.0123693,18.9713595 14.7209841,19.2642695 C14.5814328,19.4047506 14.3916017,19.4837507 14.1935877,19.4837507 C13.9955738,19.4837507 13.8057427,19.4047506 13.6661914,19.2642695 L13.6661914,19.2642695 L12.7019738,18.296218 L12.7019738,19.922257 L15.4666713,22.6984561 C15.7585297,22.9911707 15.7585297,23.4648473 15.4666713,23.7575619 C15.3270632,23.8977537 15.1373634,23.9765716 14.9395146,23.9765716 C14.7416657,23.9765716 14.5519659,23.8977537 14.4123578,23.7575619 L14.4123578,23.7575619 L12.7019738,22.0404686 L12.7019738,23.228009 C12.7019738,23.494503 12.5598009,23.7407536 12.3290104,23.8740006 C12.0982198,24.0072476 11.8138741,24.0072476 11.5830835,23.8740006 C11.352293,23.7407536 11.2101201,23.494503 11.2101202,23.228009 L11.2101202,23.228009 L11.2101202,22.0404686 L9.49973613,23.7575619 C9.3600335,23.897759 9.17025906,23.9765716 8.97233977,23.9765716 C8.77442047,23.9765716 8.58464603,23.897759 8.4449434,23.7575619 C8.15355814,23.4646519 8.15355814,22.9913661 8.4449434,22.6984561 L8.4449434,22.6984561 L11.2101202,19.922257 L11.2101202,18.296218 L10.2454233,19.2642695 C10.105872,19.4047506 9.91604086,19.4837507 9.71802694,19.4837507 C9.52001301,19.4837507 9.33018188,19.4047506 9.19063057,19.2642695 C8.89924533,18.9713595 8.89924533,18.4980737 9.19063057,18.2051637 L9.19063057,18.2051637 L11.2101202,16.1780063 L11.2101202,16.1780063 L17.4477747,9.93359503 L17.4285524,9.93357849 L18.1417522,9.21905801 C18.3025382,9.05084213 18.5306568,8.96866904 18.7579588,8.99185321 L18.8712263,9.01231449 C19.133886,9.08096088 19.3386895,9.28660185 19.4062635,9.54953944 C19.4738375,9.81247704 19.3935606,10.0913826 19.1965449,10.2781639 L19.1965449,10.2781639 L18.2318481,11.2462153 L19.8521362,11.2462153 Z M11.956047,0.0165784922 C12.3680109,0.0165784922 12.7019738,0.350541295 12.7019738,0.762505289 L12.7019738,0.762505289 L12.7019738,1.95004568 L14.4123578,0.232952367 C14.7052984,-0.0553438662 15.1760776,-0.0529292329 15.4660456,0.238356747 C15.7560135,0.529642727 15.7562931,1.00042805 15.4666713,1.29205821 L15.4666713,1.29205821 L12.7019738,4.06777812 L12.7019738,5.6942963 L13.6661914,4.72624481 C13.9590143,4.43789602 14.4297288,4.44013482 14.7197956,4.73125595 C15.0098624,5.02237707 15.0103934,5.49309661 14.7209841,5.78487141 L14.7209841,5.78487141 L12.7019738,7.81202873 L12.7019738,8.32672542 C13.1689856,8.42335351 13.6129132,8.60935398 14.0093225,8.87448919 L14.0093225,8.87448919 L17.1770553,5.6942963 L18.6689089,4.19669189 L22.2858236,0.48528478 C22.580257,0.206146634 23.0435913,0.212796115 23.3298931,0.500268604 C23.6161949,0.787741093 23.6209536,1.2510987 23.3406163,1.5443906 L23.3406163,1.5443906 L18.2318481,6.75340214 L15.0641152,9.93359503 L9.93155239,15.1335785 L9.90229219,15.1155459 L6.73455935,18.296218 L5.24270576,19.7938224 L1.2943017,23.7570827 C1.15488582,23.8976202 0.96510349,23.9765716 0.767144953,23.9765716 C0.464693374,23.975758 0.192428226,23.7930719 0.077016407,23.5135048 C-0.0383954115,23.2339378 0.025710123,22.9123899 0.239508961,22.6984561 L0.239508961,22.6984561 L4.18791302,18.7347166 L5.67976662,17.2371122 L8.84749945,14.0569193 C8.58301914,13.658278 8.39770237,13.2124765 8.30165259,12.7438197 L8.30165259,12.7438197 L7.78935209,12.7438197 L5.7698625,14.770977 C5.63031119,14.9114582 5.44048006,14.9904583 5.24246613,14.9904583 C5.04445221,14.9904583 4.85462108,14.9114582 4.71506977,14.770977 C4.4236875,14.4782528 4.4236875,14.0050747 4.71506977,13.7123505 L4.71506977,13.7123505 L5.67976662,12.7438197 L4.05947848,12.7438197 L1.2943017,15.5200189 C1.15475038,15.6605 0.964919255,15.7395001 0.766905328,15.7395001 C0.568891401,15.7395001 0.379060272,15.6605 0.239508961,15.5200189 C-0.0518762788,15.2271089 -0.0518762788,14.7538231 0.239508961,14.4609131 L0.239508961,14.4609131 L1.94989301,12.7438197 L0.767144953,12.7438197 C0.353592928,12.7438197 0.0183427816,12.4085696 0.0183427816,11.9950175 C0.0183427816,11.5814655 0.353592928,11.2462154 0.767144953,11.2462153 L0.767144953,11.2462153 L1.94989301,11.2462153 L0.239508961,9.52912202 C0.0485484522,9.34107923 -0.0270807231,9.06516855 0.0413059014,8.80603677 C0.109692526,8.546905 0.311620148,8.34424343 0.570502105,8.2749171 C0.829384062,8.20559077 1.10556732,8.28021842 1.2943017,8.47049543 L1.2943017,8.47049543 L4.05947848,11.2462153 L5.67976662,11.2462153 L4.71506977,10.2781639 C4.51805407,10.0913826 4.43777722,9.81247704 4.5053512,9.54953944 C4.57292519,9.28660185 4.7777287,9.08096088 5.04038836,9.01231449 C5.30304802,8.94366809 5.58227884,9.02280615 5.7698625,9.21905801 L5.7698625,9.21905801 L7.78935209,11.2462153 L8.30165259,11.2462153 C8.39779407,10.7777356 8.58310615,10.332108 8.84749945,9.93359503 L8.84749945,9.93359503 L5.67976662,6.75340214 L3.00468574,6.75340214 C2.59105311,6.75332897 2.25577641,6.41799296 2.25577641,6.00436032 C2.25577641,5.59072769 2.59105311,5.25539168 3.00468574,5.25531851 L3.00468574,5.25531851 L4.18791302,5.25531851 L3.22321617,4.287267 C2.94287886,3.9939751 2.94763757,3.53061749 3.23393936,3.243145 C3.52024115,2.95567251 3.98357548,2.94902303 4.27800891,3.22816118 L4.27800891,3.22816118 L5.24270576,4.19669189 L5.24270576,3.0091515 C5.24270576,2.59718751 5.57666856,2.2632247 5.98863255,2.2632247 C6.40059655,2.2632247 6.73455935,2.59718751 6.73455935,3.0091515 L6.73455935,3.0091515 L6.73455935,5.6942963 L9.90229219,8.87448919 C10.2988293,8.60926643 10.7429311,8.42326118 11.2101202,8.32672542 L11.2101202,8.32672542 L11.2101202,7.81202873 L9.19063057,5.78487141 C8.90122128,5.49309661 8.90175228,5.02237707 9.19181909,4.73125595 C9.48188591,4.44013482 9.95260042,4.43789602 10.2454233,4.72624481 L10.2454233,4.72624481 L11.2101202,5.6942963 L11.2101202,4.06777812 L8.4449434,1.29205821 C8.16460586,0.998766342 8.16936446,0.535408556 8.45566634,0.247935971 C8.74196822,-0.0395366142 9.20530273,-0.046185998 9.49973613,0.232952367 L9.49973613,0.232952367 L11.2101202,1.95004568 L11.2101202,0.762505289 C11.2101202,0.350541295 11.544083,0.0165784922 11.956047,0.0165784922 Z" id="形状结合"></path>
                    </g>
                    <g>
                        <circle id="椭圆形" fill="#FFD961" cx="10" cy="10" r="10"></circle>
                        <text id="6" font-family="Averta-Bold, Averta" font-size="12" font-weight="bold" line-spacing="12" letter-spacing="-0.0905778036" fill="#2A2C38">
                            <tspan x="7.0296639" y="11">6</tspan>
                        </text>
                    </g>
                </g>
            </g>
        </g>
    </g>
</svg>