<?xml version="1.0" encoding="UTF-8"?>
<svg width="52px" height="54px" viewBox="0 0 52 54" version="1.1" xmlns="http://www.w3.org/2000/svg" xmlns:xlink="http://www.w3.org/1999/xlink">
    <!-- Generator: Sketch 59 (86127) - https://sketch.com -->
    <title>编组 17</title>
    <desc>Created with Sketch.</desc>
    <g id="Beex-网站" stroke="none" stroke-width="1" fill="none" fill-rule="evenodd">
        <g id="Beex官网" transform="translate(-1005.000000, -3807.000000)">
            <g id="编组-16" transform="translate(982.000000, 3789.000000)">
                <g id="编组-17" transform="translate(23.000000, 18.000000)">
                    <path d="M31,3.73205081 L47.5166605,13.2679492 C49.373067,14.339746 50.5166605,16.3205081 50.5166605,18.4641016 L50.5166605,37.5358984 C50.5166605,39.6794919 49.373067,41.660254 47.5166605,42.7320508 L31,52.2679492 C29.1435935,53.339746 26.8564065,53.339746 25,52.2679492 L8.4833395,42.7320508 C6.62693304,41.660254 5.4833395,39.6794919 5.4833395,37.5358984 L5.4833395,18.4641016 C5.4833395,16.3205081 6.62693304,14.339746 8.4833395,13.2679492 L25,3.73205081 C26.8564065,2.66025404 29.1435935,2.66025404 31,3.73205081 Z" id="多边形" stroke="#FFC50E"></path>
                    <g id="编组-18" transform="translate(10.000000, 11.000000)">
                        <rect id="矩形" opacity="0.293689546" x="0.466600199" y="0.538384845" width="35.5333998" height="35.5333998"></rect>
                        <g id="编组-19" transform="translate(0.000000, 4.527418)">
                            <path d="M14.9864345,20.4807134 L11.1382639,23.8789763 L10.1168032,22.2024506 L14.9864345,20.4807134 Z M28.5660209,10.925262 L28.5660209,23.8464983 L15.5012153,23.8464983 L17.8768589,19.4925455 L23.4802662,17.3858802 L24.6201306,13.824496 L28.5660209,10.925262 Z M12.712771,0.722303078 C17.3303174,4.77572357 19.4465315,8.70312804 19.0614132,12.5045165 L13.9089482,7.70315958 L5.95847306,16.4430283 C5.32348083,17.1409919 4.24290665,17.1920402 3.54494306,16.557048 C3.53899926,16.5516405 3.53309368,16.5461911 3.52722677,16.5407002 C2.85590727,15.9124099 2.82102523,14.8588679 3.44931555,14.1875484 C3.46448472,14.1713404 3.47997654,14.1554374 3.49578174,14.1398489 L11.9106644,5.84064031 L10.6112068,4.62969098 L9.73595521,3.73924818 C9.34687517,3.34341512 9.35234957,2.70711733 9.74818262,2.31803729 L9.75109147,2.31518963 L11.3481827,0.75801404 C11.7239433,0.391626809 12.3183577,0.376075227 12.712771,0.722303078 Z M12.1305508,14.9705903 L17.0672916,16.4939626 L11.9261566,16.9174984 L12.1305508,14.9705903 Z M22.3115828,9.54752859 L22.3095982,13.5453995 L20.8835991,10.8345476 L22.3115828,9.54752859 Z M24.7595507,1.16300064 L27.4384318,3.56525016 L24.7329151,8.92588529 L24.7595507,1.16300064 Z" id="形状结合" fill="#FFC50E"></path>
                            <g id="编组-16" transform="translate(11.863535, 12.871789) rotate(-45.000000) translate(-11.863535, -12.871789) translate(2.710993, 5.549755)"></g>
                        </g>
                    </g>
                    <g>
                        <circle id="椭圆形" fill="#FFD961" cx="10" cy="10" r="10"></circle>
                        <text id="1" font-family="Averta-Bold, Averta" font-size="12" font-weight="bold" line-spacing="12" letter-spacing="-0.0905778036" fill="#2A2C38">
                            <tspan x="7.07849203" y="11">1</tspan>
                        </text>
                    </g>
                </g>
            </g>
        </g>
    </g>
</svg>