<?xml version="1.0" encoding="UTF-8"?>
<svg width="51px" height="54px" viewBox="0 0 51 54" version="1.1" xmlns="http://www.w3.org/2000/svg" xmlns:xlink="http://www.w3.org/1999/xlink">
    <!-- Generator: Sketch 59 (86127) - https://sketch.com -->
    <title>编组 17</title>
    <desc>Created with Sketch.</desc>
    <g id="Beex-网站" stroke="none" stroke-width="1" fill="none" fill-rule="evenodd">
        <g id="Beex官网" transform="translate(-1304.000000, -4010.000000)">
            <g id="编组-16" transform="translate(1280.000000, 3992.000000)">
                <g id="编组-17" transform="translate(24.000000, 18.000000)">
                    <path d="M30,3.73205081 L46.5166605,13.2679492 C48.373067,14.339746 49.5166605,16.3205081 49.5166605,18.4641016 L49.5166605,37.5358984 C49.5166605,39.6794919 48.373067,41.660254 46.5166605,42.7320508 L30,52.2679492 C28.1435935,53.339746 25.8564065,53.339746 24,52.2679492 L7.4833395,42.7320508 C5.62693304,41.660254 4.4833395,39.6794919 4.4833395,37.5358984 L4.4833395,18.4641016 C4.4833395,16.3205081 5.62693304,14.339746 7.4833395,13.2679492 L24,3.73205081 C25.8564065,2.66025404 28.1435935,2.66025404 30,3.73205081 Z" id="多边形" stroke="#FFC50E"></path>
                    <path d="M22,13.8674374 C23.3814103,13.2891458 25.0444712,13 26.9891827,13 C28.9338942,13 30.6041667,13.2891458 32,13.8674374 L30,17.8674374 C29.0192742,17.54671 28.0156684,17.3863464 26.9891827,17.3863464 C25.962697,17.3863464 24.9663028,17.54671 24,17.8674374 L22,13.8674374 Z" id="矩形" stroke="#FFC50E" stroke-width="1.5" stroke-linejoin="round"></path>
                    <path d="M38.9549947,32.3556853 C38.9549947,38.6804716 35.5361912,41.5864545 26.9891827,41.5864545 C18.4421742,41.5864545 15.0233707,38.6804716 15.0233707,32.3556853 C15.0233707,27.3984203 18.9549947,21.9283348 23.9122596,20.2189331 L30.0661058,20.2189331 C34.8524306,21.9283348 38.9549947,27.3984203 38.9549947,32.3556853 Z" id="路径" stroke="#FFC50E" stroke-width="1.5"></path>
                    <path d="M29.90625,32.9338436 L29.8945312,32.9455624 C29.8945312,33.5842343 29.6953125,34.111578 29.296875,34.5275936 C28.8984375,34.9436093 28.3535156,35.2014218 27.6621094,35.3010311 L27.6621094,36.6369686 L26.4082031,36.6369686 L26.4082031,35.2951718 C25.4765625,35.1604061 24.6738281,34.7561093 24,34.0822811 L24.9726562,32.8986874 C25.2949219,33.2092343 25.6464844,33.4436093 26.0273438,33.6018124 C26.4082031,33.7600155 26.7714844,33.8361874 27.1171875,33.8361874 C27.4160156,33.8361874 27.65625,33.7658749 27.8378906,33.6311093 C28.0195312,33.4963436 28.1132812,33.314703 28.1132812,33.0861874 C28.1132812,32.9982968 28.1015625,32.9162655 28.078125,32.845953 C28.0546875,32.7756405 28.0195312,32.705328 27.9726562,32.6408749 C27.9257812,32.5764218 27.8671875,32.517828 27.796875,32.4650936 C27.7265625,32.4123593 27.6386719,32.3596249 27.5332031,32.3068905 C27.4277344,32.2541561 27.3164062,32.2072811 27.1933594,32.1604061 C27.1113281,32.1291561 27.0188802,32.0979061 26.9160156,32.06492 L26.3496094,31.8908749 C26.2324219,31.8557186 26.1035156,31.8088436 25.9628906,31.7561093 C25.8222656,31.7033749 25.6992188,31.6506405 25.59375,31.5979061 C25.4882812,31.5451718 25.3769531,31.486578 25.2597656,31.4221249 C25.1425781,31.3576718 25.0429688,31.2932186 24.9550781,31.2229061 C24.8671875,31.1525936 24.7792969,31.0764218 24.6914062,30.9943905 C24.6035156,30.9123593 24.5332031,30.8186093 24.4746094,30.7189999 C24.4160156,30.6193905 24.3632812,30.5139218 24.3164062,30.4025936 C24.2695312,30.2912655 24.234375,30.1682186 24.2109375,30.033453 C24.1875,29.8986874 24.1757812,29.7580624 24.1757812,29.611578 C24.1757812,28.9846249 24.375,28.4631405 24.7675781,28.0412655 C25.1601562,27.6193905 25.7050781,27.3674374 26.4023438,27.2854061 L26.4023438,25.8674374 L27.65625,25.8674374 L27.65625,27.3498593 C28.0253906,27.4260311 28.3945312,27.549078 28.7578125,27.7189999 C29.1210938,27.8889218 29.4375,28.0822811 29.7070312,28.299078 L28.7636719,29.4826718 C28.1308594,29.0373593 27.515625,28.814703 26.9121094,28.814703 C26.6074219,28.814703 26.3730469,28.8732968 26.203125,28.9904843 C26.0332031,29.1076718 25.9511719,29.2717343 25.9511719,29.4885311 C25.9511719,29.6994686 26.0507812,29.8752499 26.2441406,30.0100155 C26.4098772,30.1255289 26.6703205,30.2453471 27.0254703,30.3694702 L27.2109375,30.4318905 C27.4160156,30.4963436 27.5917969,30.549078 27.7324219,30.595953 L28.0353733,30.6992516 C28.0891927,30.7183488 28.1445312,30.7385311 28.2011719,30.7600155 C28.3710938,30.8244686 28.5117188,30.8830624 28.6289062,30.9416561 C28.7460938,31.0002499 28.8691406,31.0705624 28.9980469,31.1525936 C29.1269531,31.2346249 29.2324219,31.3166561 29.3144531,31.3986874 C29.3964844,31.4807186 29.4785156,31.5744686 29.5605469,31.6857968 C29.6425781,31.7971249 29.7070312,31.9143124 29.7539062,32.0373593 C29.8007812,32.1604061 29.8359375,32.2951718 29.8652344,32.4475155 C29.8945312,32.5998593 29.90625,32.7639218 29.90625,32.9338436 Z" id="$" fill="#FFC50E" fill-rule="nonzero"></path>
                    <g>
                        <circle id="椭圆形" fill="#FFD961" cx="10" cy="10" r="10"></circle>
                        <text id="4" font-family="Averta-Bold, Averta" font-size="12" font-weight="bold" line-spacing="12" letter-spacing="-0.0905778036" fill="#2A2C38">
                            <tspan x="7.0999764" y="11">4</tspan>
                        </text>
                    </g>
                </g>
            </g>
        </g>
    </g>
</svg>