<?xml version="1.0" encoding="UTF-8"?>
<svg width="53px" height="54px" viewBox="0 0 53 54" version="1.1" xmlns="http://www.w3.org/2000/svg" xmlns:xlink="http://www.w3.org/1999/xlink">
    <!-- Generator: Sketch 59 (86127) - https://sketch.com -->
    <title>编组 17</title>
    <desc>Created with Sketch.</desc>
    <g id="Beex-网站" stroke="none" stroke-width="1" fill="none" fill-rule="evenodd">
        <g id="Beex官网" transform="translate(-1004.000000, -4213.000000)">
            <g id="编组-16" transform="translate(982.000000, 4195.000000)">
                <g id="编组-17" transform="translate(22.000000, 18.000000)">
                    <path d="M32,3.73205081 L48.5166605,13.2679492 C50.373067,14.339746 51.5166605,16.3205081 51.5166605,18.4641016 L51.5166605,37.5358984 C51.5166605,39.6794919 50.373067,41.660254 48.5166605,42.7320508 L32,52.2679492 C30.1435935,53.339746 27.8564065,53.339746 26,52.2679492 L9.4833395,42.7320508 C7.62693304,41.660254 6.4833395,39.6794919 6.4833395,37.5358984 L6.4833395,18.4641016 C6.4833395,16.3205081 7.62693304,14.339746 9.4833395,13.2679492 L26,3.73205081 C27.8564065,2.66025404 30.1435935,2.66025404 32,3.73205081 Z" id="多边形" stroke="#FFC50E"></path>
                    <text id="24" font-family="BebasNeueBold, Bebas Neue" font-size="26" font-weight="bold" letter-spacing="-0.611764761" fill="#FFC50E">
                        <tspan x="18.3157648" y="36">24</tspan>
                    </text>
                    <g>
                        <circle id="椭圆形" fill="#FFD961" cx="10" cy="10" r="10"></circle>
                        <text id="5" font-family="Averta-Bold, Averta" font-size="12" font-weight="bold" line-spacing="12" letter-spacing="-0.0905778036" fill="#2A2C38">
                            <tspan x="7.22302328" y="11">5</tspan>
                        </text>
                    </g>
                </g>
            </g>
        </g>
    </g>
</svg>