<?xml version="1.0" encoding="UTF-8"?>
<svg width="40px" height="40px" viewBox="0 0 40 40" version="1.1" xmlns="http://www.w3.org/2000/svg" xmlns:xlink="http://www.w3.org/1999/xlink">
    <!-- Generator: Sketch 59 (86127) - https://sketch.com -->
    <title>编组 7</title>
    <desc>Created with Sketch.</desc>
    <defs>
        <circle id="path-1" cx="20" cy="20" r="20"></circle>
        <linearGradient x1="24.9068536%" y1="20.9422103%" x2="61.3246447%" y2="63.5692893%" id="linearGradient-3">
            <stop stop-color="#221145" stop-opacity="0.271771198" offset="0%"></stop>
            <stop stop-color="#1D1457" stop-opacity="0" offset="100%"></stop>
        </linearGradient>
        <linearGradient x1="100.279177%" y1="100%" x2="50%" y2="14.9365396%" id="linearGradient-4">
            <stop stop-color="#939393" offset="0%"></stop>
            <stop stop-color="#FDF1FF" offset="100%"></stop>
        </linearGradient>
        <path d="M20,9.33333333 C25.8910373,9.33333333 30.6666667,14.1089627 30.6666667,20 C30.6666667,24.7570732 27.5526085,28.7868191 23.2518018,30.161928 L16.0015622,33.2810044 L18.2581927,30.5251563 C13.1956825,29.6936629 9.33333333,25.2978814 9.33333333,20 C9.33333333,14.1089627 14.1089627,9.33333333 20,9.33333333 Z M20.6666667,18.6666667 L19.3333333,18.6666667 C18.9986153,18.6666667 18.7215113,18.9133417 18.673895,19.2348182 L18.6666667,19.3333333 L18.6666667,26 C18.6666667,26.334718 18.9133417,26.611822 19.2348182,26.6594383 L19.3333333,26.6666667 L20.6666667,26.6666667 C21.0013847,26.6666667 21.2784887,26.4199916 21.326105,26.0985151 L21.3333333,26 L21.3333333,19.3333333 C21.3333333,18.9651435 21.0348565,18.6666667 20.6666667,18.6666667 Z M19.9944507,13.9812319 C19.0739761,13.9812319 18.327784,14.727424 18.327784,15.6478986 C18.327784,16.5683732 19.0739761,17.3145653 19.9944507,17.3145653 C20.9149252,17.3145653 21.6611173,16.5683732 21.6611173,15.6478986 C21.6611173,14.727424 20.9149252,13.9812319 19.9944507,13.9812319 Z" id="path-5"></path>
        <filter x="-4.7%" y="-4.2%" width="109.4%" height="108.4%" filterUnits="objectBoundingBox" id="filter-6">
            <feGaussianBlur stdDeviation="0.5" in="SourceAlpha" result="shadowBlurInner1"></feGaussianBlur>
            <feOffset dx="0" dy="1" in="shadowBlurInner1" result="shadowOffsetInner1"></feOffset>
            <feComposite in="shadowOffsetInner1" in2="SourceAlpha" operator="arithmetic" k2="-1" k3="1" result="shadowInnerInner1"></feComposite>
            <feColorMatrix values="0 0 0 0 1   0 0 0 0 1   0 0 0 0 1  0 0 0 0.5 0" type="matrix" in="shadowInnerInner1"></feColorMatrix>
        </filter>
    </defs>
    <g id="PC版" stroke="none" stroke-width="1" fill="none" fill-rule="evenodd">
        <g id="Beex-PC端首页" transform="translate(-1435.000000, -2284.000000)">
            <g id="编组-9" transform="translate(0.000000, 2172.000000)">
                <g id="编组-7" transform="translate(1435.000000, 112.000000)">
                    <mask id="mask-2" fill="white">
                        <use xlink:href="#path-1"></use>
                    </mask>
                    <use id="蒙版" fill="#23252B" xlink:href="#path-1"></use>
                    <polygon id="路径-27" fill="url(#linearGradient-3)" mask="url(#mask-2)" points="16.0015622 33.2810044 28.0680771 41.1494406 41.8841394 25.6054706 26.4575256 11.5073914 20.6666667 28.0097003"></polygon>
                    <g id="形状结合" mask="url(#mask-2)">
                        <use fill="url(#linearGradient-4)" fill-rule="evenodd" xlink:href="#path-5"></use>
                        <use fill="black" fill-opacity="1" filter="url(#filter-6)" xlink:href="#path-5"></use>
                    </g>
                </g>
            </g>
        </g>
    </g>
</svg>