<?xml version="1.0" encoding="UTF-8"?>
<svg width="35px" height="38px" viewBox="0 0 35 38" version="1.1" xmlns="http://www.w3.org/2000/svg" xmlns:xlink="http://www.w3.org/1999/xlink">
    <!-- Generator: Sketch 59 (86127) - https://sketch.com -->
    <title>logo</title>
    <desc>Created with Sketch.</desc>
    <defs>
        <path d="M5.06836423,19.7031039 C7.47033345,19.7031039 10.1367285,14.3668204 10.1367285,9.25527381 C10.1367285,4.14372723 7.8675445,0 5.06836423,0 C2.26918396,0 0,4.14372723 0,9.25527381 C0,14.3668204 2.66639502,19.7031039 5.06836423,19.7031039 Z" id="path-1"></path>
    </defs>
    <g id="PC版" stroke="none" stroke-width="1" fill="none" fill-rule="evenodd">
        <g id="Beex-PC端首页" transform="translate(-367.000000, -21.000000)">
            <g id="logo" transform="translate(359.000000, 15.000000)">
                <path d="M12.819426,-5.17920154e-16 L37.180574,5.17920154e-16 C41.6381677,-3.00926524e-16 43.2545989,0.464128056 44.8842285,1.33566352 C46.5138581,2.20719898 47.792801,3.48614185 48.6643365,5.11577148 C49.5358719,6.74540111 50,8.3618323 50,12.819426 L50,37.180574 C50,41.6381677 49.5358719,43.2545989 48.6643365,44.8842285 C47.792801,46.5138581 46.5138581,47.792801 44.8842285,48.6643365 C43.2545989,49.5358719 41.6381677,50 37.180574,50 L12.819426,50 C8.3618323,50 6.74540111,49.5358719 5.11577148,48.6643365 C3.48614185,47.792801 2.20719898,46.5138581 1.33566352,44.8842285 C0.464128056,43.2545989 2.00617683e-16,41.6381677 -3.45280103e-16,37.180574 L3.45280103e-16,12.819426 C-2.00617683e-16,8.3618323 0.464128056,6.74540111 1.33566352,5.11577148 C2.20719898,3.48614185 3.48614185,2.20719898 5.11577148,1.33566352 C6.74540111,0.464128056 8.3618323,3.00926524e-16 12.819426,-5.17920154e-16 Z" id="矩形" opacity="0.637555804"></path>
                <g id="编组-3" transform="translate(5.789474, 8.157895)">
                    <g id="椭圆形" transform="translate(13.921798, 14.380638)">
                        <mask id="mask-2" fill="white">
                            <use xlink:href="#path-1"></use>
                        </mask>
                        <path stroke="#24262B" stroke-width="1.7629093" d="M5.06836423,20.5845586 C1.98272256,20.5845586 -0.881454649,14.7397097 -0.881454649,9.25527381 C-0.881454649,3.72163669 1.63928585,-0.881454649 5.06836423,-0.881454649 C8.49744261,-0.881454649 11.0181831,3.72163669 11.0181831,9.25527381 C11.0181831,14.7397097 8.1540059,20.5845586 5.06836423,20.5845586 Z"></path>
                        <ellipse stroke="#24262B" stroke-width="2.20363662" fill="#FFC100" mask="url(#mask-2)" cx="5.06836423" cy="-2.86472761" rx="13.4421834" ry="17.4087293"></ellipse>
                        <ellipse stroke="#24262B" stroke-width="2.20363662" fill="#FFC100" mask="url(#mask-2)" cx="5.06836423" cy="-8.37381916" rx="13.4421834" ry="18.5105476"></ellipse>
                    </g>
                    <g id="编组-2" transform="translate(0.000000, 2.455075)">
                        <g id="编组" transform="translate(19.555331, 13.353846) scale(1, -1) translate(-19.555331, -13.353846) translate(3.055331, 3.353846)" fill="#F4F4F4" stroke="#24262B" stroke-width="1.97031039">
                            <path d="M29.4418144,0.506172129 C31.3568191,2.05929502 28.7868742,6.51482698 24.9334924,9.78409498 C24.5076243,10.145408 24.0771668,10.4722699 23.6464954,10.7663208 C24.2168505,10.9185289 24.7958368,11.109501 25.3764295,11.3430781 C30.006156,13.2056543 33.2566749,16.4547198 32.0295156,18.6133695 C30.8023563,20.7720191 22.4059944,20.7720191 16.1552202,14.2930109 C10.1818428,20.8791158 0.976624584,20.8791158 0.280875751,18.6133695 C-0.414873083,16.3476232 2.30423536,13.2056543 6.93396182,11.3430781 C7.51455454,11.109501 8.09354088,10.9185289 8.66407712,10.7661894 C8.23322458,10.4722699 7.80276708,10.145408 7.37689896,9.78409498 C3.52351712,6.51482698 0.487236178,2.25510811 2.86857694,0.506172129 C5.2499177,-1.24276385 13.1997301,2.93717756 16.1553102,7.59136302 C19.1106613,3.18080211 27.5268098,-1.04695076 29.4418144,0.506172129 Z" id="路径"></path>
                        </g>
                        <g id="编组"></g>
                    </g>
                    <g id="编组-2" transform="translate(26.921053, 16.455075) scale(-1, 1) translate(-26.921053, -16.455075) translate(15.421053, 2.455075)">
                        <g id="编组" transform="translate(12.314440, 17.240216) scale(1, -1) translate(-12.314440, -17.240216) translate(2.462888, 7.388664)"></g>
                        <g id="编组"></g>
                    </g>
                    <ellipse id="椭圆形" stroke="#24262B" stroke-width="1.97031039" fill="#F4F4F4" cx="19.2105263" cy="3.94062078" rx="3.94062078" ry="4.92577598"></ellipse>
                </g>
            </g>
        </g>
    </g>
</svg>