<?xml version="1.0" encoding="UTF-8"?>
<svg width="32px" height="36px" viewBox="0 0 32 36" version="1.1" xmlns="http://www.w3.org/2000/svg" xmlns:xlink="http://www.w3.org/1999/xlink">
    <!-- Generator: Sketch 59 (86127) - https://sketch.com -->
    <title>编组 10</title>
    <desc>Created with Sketch.</desc>
    <g id="PC版" stroke="none" stroke-width="1" fill="none" fill-rule="evenodd">
        <g id="1.我的资产" transform="translate(-363.000000, -24.000000)">
            <g id="编组-10" transform="translate(363.000000, 24.000000)">
                <path d="M19.8931134,30.4890607 C18.8597643,33.3483995 17.2175802,35.4546984 15.6797684,35.4546984 C14.1419566,35.4546984 12.4997725,33.3483995 11.4664234,30.4890607 C12.8009473,30.9786601 14.2141591,31.2413651 15.6797684,31.2413651 C16.9514389,31.2413651 18.1836616,31.0435857 19.3593205,30.6713586 L19.8931134,30.4890607 Z M20.9219758,26.1084337 C20.8839176,26.8474157 20.7953619,27.5852312 20.66448,28.3063759 C20.2144121,28.5589483 19.7516524,28.7783712 19.2780256,28.9624122 C18.2341931,29.2475349 17.1349016,29.4 16,29.4 C14.0948903,29.4 12.2901259,28.9703705 10.6773091,28.2027137 L10.6951621,28.3067931 C10.5641749,27.5852312 10.4756191,26.8474157 10.437561,26.1084337 C12.0659422,26.9154386 13.8304028,27.3568891 15.6797684,27.3568891 C17.3148187,27.3568891 18.8835025,27.0118258 20.3501102,26.3740154 L20.7146149,26.2084942 L20.9219758,26.1084337 Z M15.9087265,20.1482775 C16.7770664,21.647267 18.325196,23.0318189 20.2470475,24.2475111 C19.0021687,24.9801189 17.5501186,25.4 16,25.4 C14.4006942,25.4 12.9057792,24.9530494 11.6333486,24.1772415 C13.4801829,22.9327239 15.2539552,21.3754333 15.9087265,20.1482775 Z" id="形状" fill="#FFC100"></path>
                <path d="M29.6875102,8.03125952 C29.6896949,8.63447122 29.4684209,9.3429286 29.0978043,10.1056406 C28.2400728,11.8708135 26.5781987,13.8850301 24.576645,15.5831788 C24.1534201,15.9422493 23.7256586,16.2671157 23.2976591,16.5593423 L22.0507562,17.4106943 L23.5095282,17.7999903 C24.0754828,17.9510242 24.6499975,18.1405362 25.2261102,18.372311 C27.5744357,19.3170612 29.5720614,20.6132542 30.7950176,21.9496638 C31.3389499,22.5440566 31.727123,23.1399907 31.8916489,23.7144128 C32.0158488,24.1480412 32.0033822,24.5653117 31.7916251,24.9378055 C31.4827549,25.4811275 30.5758781,25.7634294 29.4469326,25.8803296 C28.1809958,26.0114151 26.5892598,25.8808591 24.8616538,25.4106727 C22.1342998,24.6683943 19.0758209,23.0791492 16.4068653,20.3127423 C16.229765,20.1291756 16.057906,19.9440806 15.8911843,19.7576644 C15.7315954,19.949814 15.5665181,20.1401216 15.3958249,20.3283238 C12.8789613,23.1033583 9.7876845,24.707791 7.00220746,25.4658859 C5.18566482,25.9602758 3.50084467,26.0954225 2.19808725,25.9520662 C1.55365079,25.881152 1.00868311,25.7446375 0.604429065,25.5408691 C0.354977213,25.4151303 0.147213771,25.2775538 0.0855452033,25.0767266 C-0.224739691,24.0662659 0.33340984,22.8876641 1.36548905,21.7598391 C2.52715175,20.4904092 4.33234796,19.2810271 6.59110493,18.372311 C7.16725081,18.1405228 7.7417992,17.9510025 8.30796607,17.7998296 L9.76720115,17.4101975 L8.51951321,16.5590482 C8.09140714,16.2670023 7.66372232,15.9421875 7.24057017,15.5831788 C5.1490991,13.8087428 3.28663245,11.7498425 2.41230693,9.95052013 C2.07891931,9.26442349 1.88777795,8.62456686 1.93529298,8.06612079 C1.97032999,7.65432933 2.1555619,7.30253013 2.52076968,7.03430937 C3.00171612,6.68108629 3.76549359,6.68266474 4.64412863,6.84054899 C5.79019953,7.04648949 7.13597691,7.5661816 8.50070406,8.2939265 C11.1405426,9.7016284 13.854103,11.8900116 15.3243023,14.2051511 C15.5267636,14.5239693 15.7170225,14.8631063 15.8949959,15.2187228 C16.0798179,14.864021 16.27615,14.5293779 16.4838584,14.2193943 C17.9274736,12.0649453 20.6817606,9.96576274 23.3351895,8.55078933 C24.7680144,7.78671793 26.1732509,7.22193179 27.3323499,6.96861069 C28.1659874,6.78641922 28.8885851,6.70454829 29.2701628,7.0140186 C29.5718617,7.25870487 29.686011,7.61731861 29.6875102,8.03125952 Z" id="路径" fill="#FFFFFF" transform="translate(15.985595, 16.372460) scale(1, -1) translate(-15.985595, -16.372460) "></path>
                <ellipse id="椭圆形" fill="#FFFFFF" cx="15.9086076" cy="4.09218312" rx="3.06913734" ry="4.09218312"></ellipse>
            </g>
        </g>
    </g>
</svg>