<?xml version="1.0" encoding="UTF-8"?>
<svg width="42px" height="42px" viewBox="0 0 42 42" version="1.1" xmlns="http://www.w3.org/2000/svg" xmlns:xlink="http://www.w3.org/1999/xlink">
    <!-- Generator: Sketch 59 (86127) - https://sketch.com -->
    <title>分组 14</title>
    <desc>Created with Sketch.</desc>
    <g id="PC版" stroke="none" stroke-width="1" fill="none" fill-rule="evenodd">
        <g id="4.4场外交易-购买-订单详情-订单已完成" transform="translate(-389.000000, -575.000000)">
            <g id="分组-14" transform="translate(389.000000, 575.000000)">
                <g id="分组-13" fill="#359F5E">
                    <circle id="椭圆形" cx="21" cy="21" r="21"></circle>
                </g>
                <path d="M17.175819,25.6991978 L29.5045209,15.1173 C29.9396755,14.7438008 30.4941852,14.5384615 31.0676494,14.5384615 L31.9786569,14.5384615 C32.1774794,14.5384615 32.3386569,14.699639 32.3386569,14.8984615 C32.3386569,14.9939395 32.3007285,15.0855069 32.2332154,15.15302 L17.7286385,29.6575969 C17.2600093,30.126226 16.5002114,30.126226 16.0315822,29.6575969 C16.0081794,29.6341941 15.9857549,29.6098332 15.964366,29.5845765 L10.2223244,22.8041908 C10.0938341,22.6524653 10.1126699,22.4253055 10.2643954,22.2968152 C10.329412,22.2417551 10.4118493,22.2115385 10.4970477,22.2115385 L12.1879234,22.2115385 C12.4921321,22.2115385 12.7849868,22.3270763 13.007251,22.5347817 L16.3753731,25.6822858 C16.5988679,25.8911412 16.9437021,25.898427 17.175819,25.6991978 Z" id="路径-3" fill="#FFFFFF" fill-rule="nonzero"></path>
            </g>
        </g>
    </g>
</svg>